<?xml version="1.0" standalone="no"?>
<!DOCTYPE svg PUBLIC "-//W3C//DTD SVG 1.1//EN" "https://www.w3.org/Graphics/SVG/1.1/DTD/svg11.dtd" >
<svg xmlns="https://www.w3.org/2000/svg">
<metadata></metadata>
<defs>
<font id="gentleman_800bold" horiz-adv-x="1226" >
<font-face units-per-em="2048" ascent="1536" descent="-512" />
<missing-glyph horiz-adv-x="503" />
<glyph unicode="AE" horiz-adv-x="2000" d="M-23 0l836 1434h1075v-238h-620v-332h571v-237h-571v-389h645v-238h-914v311h-540l-185 -311h-297zM586 545h413v674h-20z" />
<glyph unicode="ae" horiz-adv-x="1787" d="M53 276q0 77 36 136t95.5 96t147.5 61t179 34t202 13v33q0 79 -59 121.5t-148 42.5q-72 0 -131.5 -22t-95.5 -58l-160 170q68 64 185.5 105t244.5 41q111 0 196 -42.5t127 -123.5h5q132 166 378 166q96 0 174 -24.5t130.5 -67t88 -101t51 -124t15.5 -138.5q0 -29 -8 -137 h-735q13 -115 103.5 -185.5t217.5 -70.5q43 0 85 8.5t71.5 21t53 25t34.5 20.5l12 9l146 -166q-6 -6 -18.5 -15.5t-53 -34.5t-84.5 -44t-111.5 -34.5t-136.5 -15.5q-146 0 -256.5 53.5t-179.5 149.5h-4q-51 -98 -165 -150.5t-243 -52.5q-57 0 -110 9t-104.5 31t-89.5 55.5 t-61.5 86.5t-23.5 119zM309 272q0 -37 28 -61t65.5 -32.5t82.5 -8.5q36 0 73.5 9t73 27t58.5 51.5t23 76.5v100q-89 -2 -156 -10.5t-126 -25.5t-90.5 -49t-31.5 -77zM985 631h490q0 98 -55 156.5t-165 58.5q-100 0 -176.5 -57.5t-93.5 -157.5z" />
<glyph unicode="OE" horiz-adv-x="1939" d="M80 717q0 205 92 369t254.5 256t364.5 92h1036v-238h-623v-332h574v-237h-574v-389h647v-238h-1060q-202 0 -364.5 92t-254.5 256t-92 369zM350 717q0 -207 126 -343t315 -136h147v958h-147q-189 0 -315 -136t-126 -343z" />
<glyph unicode="oe" horiz-adv-x="1966" d="M70 512q0 230 155 383.5t387 153.5q131 0 238 -53.5t170 -145.5h4q60 94 168.5 146.5t243.5 52.5q121 0 211.5 -37t142.5 -102t77 -144t25 -172q0 -29 -8 -137h-735q13 -115 104.5 -185.5t219.5 -70.5q68 0 131 21t92 42l30 21l148 -166q-7 -6 -19.5 -15.5t-54.5 -34.5 t-86 -44t-111 -34.5t-133 -15.5q-141 0 -257 56t-181 153h-4q-63 -97 -171.5 -153t-244.5 -56q-232 0 -387 153.5t-155 383.5zM334 512q0 -129 79 -215t199 -86q122 0 201.5 85.5t79.5 215.5t-79.5 215.5t-201.5 85.5q-120 0 -199 -86t-79 -215zM1163 631h490 q0 100 -54.5 157.5t-164.5 57.5q-101 0 -177.5 -58t-93.5 -157z" />
<glyph unicode="&#x2e;&#x2e;&#x2e;" horiz-adv-x="1859" d="M123 0v260h266v-260h-266zM797 0v260h266v-260h-266zM1470 0v260h267v-260h-267z" />
<glyph horiz-adv-x="0" />
<glyph horiz-adv-x="0" />
<glyph horiz-adv-x="682" />
<glyph unicode="&#xd;" horiz-adv-x="512" />
<glyph unicode=" "  horiz-adv-x="503" />
<glyph unicode="&#x09;" horiz-adv-x="503" />
<glyph unicode="&#xa0;" horiz-adv-x="503" />
<glyph unicode="!" horiz-adv-x="643" d="M188 0v260h267v-260h-267zM188 1434h267l-11 -981h-245z" />
<glyph unicode="&#x22;" horiz-adv-x="897" d="M129 1434h246l-13 -521h-223zM524 1434h244l-10 -521h-223z" />
<glyph unicode="#" horiz-adv-x="1343" d="M84 354v234h203l35 264h-189v233h221l49 349h273l-47 -349h207l47 349h274l-49 -349h149v-233h-180l-37 -264h168v-234h-200l-47 -354h-275l47 354h-207l-47 -354h-272l47 354h-170zM557 584h211l39 272h-213z" />
<glyph unicode="$" horiz-adv-x="1107" d="M72 170q22 24 74 83t81 91q40 -40 129 -83.5t193 -43.5q92 0 148.5 49t56.5 133q0 42 -17 75.5t-58 61t-65 39.5t-81 36q-7 3 -11 5q-58 22 -94.5 37t-83.5 39t-76 46t-60 54t-48 68t-28 84t-11 105q0 150 91.5 252t240.5 137v182h245v-170q103 -15 184 -58.5t122 -84.5 q-25 -30 -75.5 -91.5t-76.5 -91.5q-31 31 -97.5 60.5t-150.5 29.5q-90 0 -151.5 -44t-61.5 -121q0 -41 15 -71.5t46 -53t62.5 -37.5t81.5 -36q12 -4 18 -7q51 -20 83.5 -34t80 -39t78.5 -48t66 -57.5t55 -72t33.5 -87.5t13.5 -107q0 -156 -88.5 -262.5t-237.5 -140.5v-180 h-245v168q-129 15 -230 72t-151 114z" />
<glyph unicode="%" horiz-adv-x="1757" d="M70 1104q0 149 102 249.5t250 100.5q150 0 252 -100.5t102 -249.5t-102 -249.5t-252 -100.5q-148 0 -250 100.5t-102 249.5zM268 -37l914 1507h303l-914 -1507h-303zM293 1104q0 -59 38 -99t95 -40q54 0 92.5 40.5t38.5 98.5t-38.5 98.5t-92.5 40.5q-57 0 -95 -40 t-38 -99zM983 330q0 149 102 249.5t252 100.5t251.5 -100.5t101.5 -249.5t-101.5 -249.5t-251.5 -100.5t-252 100.5t-102 249.5zM1206 330q0 -58 38.5 -99t94.5 -41q55 0 93 40.5t38 99.5t-38 99t-93 40q-56 0 -94.5 -40.5t-38.5 -98.5z" />
<glyph unicode="&#x26;" horiz-adv-x="1517" d="M145 387q0 74 18.5 136.5t56.5 113.5t85.5 92.5t114.5 83.5q-121 158 -121 291q0 165 109 259.5t274 94.5q103 0 186.5 -39t135 -118t51.5 -185q0 -199 -246 -364l172 -207l143 225h312l-279 -420l303 -350h-340l-114 143q-76 -86 -166 -127t-224 -41q-201 0 -336 111 t-135 301zM414 387q0 -81 57.5 -127.5t144.5 -46.5q118 0 218 125l-248 291q-88 -56 -130 -110t-42 -132zM567 1104q0 -73 82 -174q62 42 99.5 91.5t37.5 96.5t-30 74t-74 27q-48 0 -81.5 -31t-33.5 -84z" />
<glyph unicode="'" horiz-adv-x="503" d="M129 1434h246l-13 -521h-223z" />
<glyph unicode="(" horiz-adv-x="628" d="M78 584q0 248 77.5 486t209.5 421l194 -113q-97 -162 -154 -369t-57 -425q0 -219 57.5 -427t155.5 -372l-194 -109q-133 184 -211 422t-78 486z" />
<glyph unicode=")" horiz-adv-x="630" d="M70 -215q98 165 155.5 373t57.5 426t-57 425t-154 369l192 113q132 -183 210.5 -421.5t78.5 -485.5t-78.5 -485t-210.5 -423z" />
<glyph unicode="*" horiz-adv-x="1040" d="M82 1079l82 228l231 -88l-4 245h250l-6 -250l242 84l77 -229l-239 -68l159 -213l-206 -137l-152 230l-151 -230l-205 137l159 216z" />
<glyph unicode="+" horiz-adv-x="1271" d="M78 545v237h426v439h266v-439h424v-237h-424v-441h-266v441h-426z" />
<glyph unicode="," horiz-adv-x="555" d="M23 -297l147 492h252l-160 -492h-239z" />
<glyph unicode="-" horiz-adv-x="796" d="M109 414v237h579v-237h-579z" />
<glyph unicode="." horiz-adv-x="512" d="M123 0v260h266v-260h-266z" />
<glyph unicode="/" horiz-adv-x="1007" d="M51 -18l621 1484h284l-620 -1484h-285z" />
<glyph unicode="0" horiz-adv-x="1148" d="M98 715q0 115 14.5 218.5t49 201t87.5 168t136 113t188 42.5t188.5 -42.5t136.5 -113t88.5 -168t50 -201t14.5 -218.5q0 -95 -10.5 -182.5t-32.5 -172t-60.5 -153.5t-89.5 -121.5t-124 -81.5t-161 -29q-105 0 -188 42t-136 112t-87.5 167.5t-49 200.5t-14.5 218zM369 715 q0 -99 10.5 -183.5t33 -157.5t63.5 -115t97 -42q57 0 98.5 42t64.5 115t33.5 157.5t10.5 183.5t-10.5 184t-33.5 159t-64.5 116.5t-98.5 42.5q-56 0 -97 -42.5t-63.5 -116.5t-33 -159t-10.5 -184z" />
<glyph unicode="1" horiz-adv-x="825" d="M6 1184l307 250h314v-1434h-265v1174h-4l-192 -164z" />
<glyph unicode="2" horiz-adv-x="1142" d="M84 0v166q0 94 37.5 180t97 151.5t131.5 125t144 111t131.5 100t97 102t37.5 106.5q0 72 -56.5 125.5t-150.5 53.5q-49 0 -93 -15t-72 -37t-48.5 -44t-29.5 -37l-9 -15l-211 109q3 6 8.5 16t26 38.5t45 54.5t64.5 58t84.5 55t106 38.5t128.5 15.5q108 0 199.5 -35.5 t150.5 -94t92 -133t33 -153.5q0 -84 -36.5 -160t-95 -134.5t-129.5 -112t-141.5 -102t-129 -94.5t-95 -99t-36.5 -107h692v-233h-973z" />
<glyph unicode="3" horiz-adv-x="1167" d="M57 281l226 79q2 -6 7 -16t25.5 -35t47.5 -44.5t75.5 -35.5t106.5 -16q256 0 256 217q0 94 -75.5 147.5t-162.5 55.5h-108v205h112q78 2 138.5 53t60.5 137q0 79 -55 136t-156 57q-50 0 -91.5 -11t-65 -26.5t-40 -31.5t-22.5 -27l-6 -11l-224 90q4 10 13 27.5t45.5 61 t82 77t127 61t177.5 27.5t177 -23t136.5 -62.5t94.5 -91.5t57 -109t18 -117q0 -116 -72.5 -200.5t-170.5 -111.5v-4q110 -25 194 -117t84 -212q0 -212 -139 -322.5t-381 -112.5q-79 0 -149 17t-118.5 44t-88.5 59.5t-64.5 65t-41.5 59.5t-23 44z" />
<glyph unicode="4" d="M51 297v266l643 871h285v-904h170v-233h-170v-297h-262v297h-666zM313 530h404v557h-4l-400 -552v-5z" />
<glyph unicode="5" horiz-adv-x="1148" d="M72 244l211 110q31 -66 97.5 -103.5t158.5 -37.5q109 0 186.5 73.5t77.5 180.5q0 117 -81 186.5t-206 69.5q-50 0 -102.5 -16t-76.5 -29t-38 -23l-147 76l12 703h801v-234h-539l-6 -289q1 0 2 -1t2 -1q18 11 59 21t86 10q228 0 365 -132.5t137 -338.5q0 -99 -40 -190 t-109.5 -158t-169.5 -106.5t-213 -39.5q-163 0 -282.5 71.5t-184.5 197.5z" />
<glyph unicode="6" horiz-adv-x="1183" d="M88 649q0 111 24 222t76.5 217.5t128.5 188t189 131.5t248 50q75 0 144.5 -15t101.5 -29l32 -15l-108 -213q-57 35 -170 35q-82 0 -151 -34.5t-115.5 -94t-77.5 -129.5t-48 -150h5q120 105 274 105q128 0 235.5 -58.5t171.5 -165.5t64 -239q0 -145 -64 -255.5 t-171 -167.5t-240 -57q-162 0 -287.5 87t-193.5 240.5t-68 346.5zM354 578q9 -165 88 -266t195 -101q91 0 151 67t60 181q0 106 -61 179t-160 73q-89 0 -160.5 -37.5t-112.5 -95.5z" />
<glyph unicode="7" horiz-adv-x="1003" d="M51 1200v234h928v-256l-555 -1178h-287l580 1196v4h-666z" />
<glyph unicode="8" horiz-adv-x="1206" d="M104 391q0 91 28 162t70 115t105 82v4q-76 56 -118 126.5t-42 172.5q0 123 64.5 216.5t169.5 141t231 47.5q206 0 329.5 -103t123.5 -302q0 -115 -43.5 -191t-122.5 -131v-4q63 -39 104.5 -80t70 -107t28.5 -149q0 -98 -42.5 -178.5t-112 -131.5t-156.5 -78.5t-179 -27.5 q-76 0 -147 14.5t-137 47t-115 79.5t-78.5 118t-30.5 157zM369 391q0 -90 71.5 -135t171.5 -45q91 0 157.5 48.5t66.5 131.5q0 25 -8 47.5t-19.5 39.5t-32 34.5t-37 29t-44 25t-43 20.5t-44.5 19t-39 17q-46 -19 -77 -37.5t-61.5 -45.5t-46 -64.5t-15.5 -84.5zM412 1053 q0 -40 17 -72t52 -57t68.5 -41.5t85.5 -36.5q80 39 123 84.5t43 122.5q0 84 -51.5 127t-137.5 43q-85 0 -142.5 -46.5t-57.5 -123.5z" />
<glyph unicode="9" horiz-adv-x="1189" d="M78 979q0 217 135.5 348t339.5 131q162 0 287.5 -87t193.5 -240.5t68 -346.5q0 -111 -24 -222t-76.5 -217.5t-128.5 -188t-189 -131.5t-248 -50q-75 0 -144.5 15t-101.5 30l-32 15l108 213q57 -35 170 -35q82 0 150.5 34.5t115.5 94t77.5 129.5t47.5 150h-4 q-120 -105 -274 -105q-128 0 -235.5 58.5t-171.5 165.5t-64 239zM342 975q0 -106 61 -179t160 -73q89 0 160.5 37.5t112.5 95.5q-9 165 -88 266t-195 101q-91 0 -151 -67t-60 -181z" />
<glyph unicode=":" horiz-adv-x="512" d="M123 0v260h266v-260h-266zM123 764v260h266v-260h-266z" />
<glyph unicode=";" horiz-adv-x="600" d="M55 -297l148 492h252l-160 -492h-240zM178 764v260h268v-260h-268z" />
<glyph unicode="&#x3c;" horiz-adv-x="1318" d="M72 541v266l1116 506v-266l-852 -371v-4l852 -373v-266z" />
<glyph unicode="=" horiz-adv-x="1374" d="M129 348v238h1116v-238h-1116zM129 741v238h1116v-238h-1116z" />
<glyph unicode="&#x3e;" horiz-adv-x="1318" d="M131 33v266l852 373v4l-852 371v266l1116 -506v-266z" />
<glyph unicode="?" horiz-adv-x="1056" d="M66 1106q35 163 156.5 257.5t297.5 94.5q126 0 226 -43t160.5 -131.5t60.5 -208.5q0 -65 -16 -118t-49.5 -95t-64 -70t-81.5 -65q-64 -49 -90.5 -89t-26.5 -106v-79h-268v79q0 73 12 125.5t42.5 98t67.5 81t103 85.5q49 36 73.5 69t24.5 84q0 66 -49 104t-125 38 q-79 0 -138.5 -42.5t-80.5 -119.5zM371 0v260h268v-260h-268z" />
<glyph unicode="@" horiz-adv-x="1626" d="M88 711q0 157 54.5 294.5t151 237.5t236.5 157.5t304 57.5q125 0 229 -21t193 -69t150 -122t95.5 -183t34.5 -248q0 -104 -38 -196.5t-97.5 -154t-132 -97t-142.5 -35.5q-65 0 -104 29.5t-55 72.5h-4q-86 -102 -222 -102q-133 0 -212.5 91t-79.5 236q0 114 43.5 215.5 t128 166.5t190.5 65q58 0 101.5 -27t66.5 -67h4l10 63h205l-78 -465q-5 -29 8 -46.5t41 -18.5q57 0 109.5 78t52.5 192q0 123 -36.5 213.5t-105 143.5t-156.5 77.5t-199 24.5q-159 0 -283 -74.5t-191 -202.5t-67 -286q0 -252 153 -401.5t404 -149.5q308 0 504 186l127 -133 q-122 -117 -275.5 -177.5t-355.5 -60.5q-225 0 -397.5 89.5t-268.5 257t-96 389.5zM653 670q0 -65 29.5 -109.5t67.5 -44.5q100 0 157 57q8 47 24.5 142.5t24.5 142.5q-46 64 -122 64q-79 0 -130 -75.5t-51 -176.5z" />
<glyph unicode="A" horiz-adv-x="1435" d="M-10 0l588 1434h282l584 -1434h-283l-125 307h-639l-127 -307h-280zM492 541h450l-221 608h-4z" />
<glyph unicode="B" horiz-adv-x="1347" d="M172 0v1434h467q95 0 171.5 -9.5t148 -35.5t119.5 -67.5t77 -108.5t29 -156q0 -102 -54.5 -182.5t-138.5 -108.5v-4q133 -41 207 -131t74 -223q0 -92 -32.5 -163.5t-87.5 -117t-134.5 -75t-166 -41t-189.5 -11.5h-490zM438 238h224q95 0 168 17.5t121 61t48 109.5 q0 108 -78.5 165.5t-218.5 57.5h-264v-411zM438 846h264q51 0 96.5 18t79 61.5t33.5 106.5q0 59 -38 97t-96 52.5t-138 14.5h-201v-350z" />
<glyph unicode="C" horiz-adv-x="1404" d="M78 717q0 211 98.5 380.5t271.5 265t386 95.5q159 0 300 -60.5t214 -162.5l-195 -141q-46 57 -132.5 90t-186.5 33q-208 0 -347 -142t-139 -358q0 -217 137.5 -358.5t348.5 -141.5q116 0 204 44.5t138 113.5l198 -137q-78 -115 -217 -189t-323 -74q-162 0 -302.5 56 t-240 154t-156.5 236t-57 296z" />
<glyph unicode="D" horiz-adv-x="1482" d="M172 0v1434h477q109 0 216 -28t204 -87t171.5 -142t118.5 -201.5t44 -256.5q0 -139 -44 -258t-118.5 -202.5t-171.5 -143t-204 -87.5t-216 -28h-477zM438 238h211q88 0 172.5 31.5t155 89.5t113.5 152t43 208q0 91 -28.5 170t-76 134.5t-110 95t-131 58.5t-138.5 19h-211 v-958z" />
<glyph unicode="E" horiz-adv-x="1173" d="M172 0v1434h889v-238h-623v-332h574v-237h-574v-389h647v-238h-913z" />
<glyph unicode="F" horiz-adv-x="1107" d="M172 0v1434h864v-238h-598v-336h547v-237h-547v-623h-266z" />
<glyph unicode="G" horiz-adv-x="1478" d="M78 717q0 211 98.5 380.5t271.5 265t386 95.5q328 0 522 -188l-166 -176q-133 123 -356 123q-208 0 -347 -142t-139 -358q0 -217 137.5 -358.5t348.5 -141.5q139 0 272 29v469h266v-652q-257 -88 -538 -88q-162 0 -302.5 56t-240 154t-156.5 236t-57 296z" />
<glyph unicode="H" horiz-adv-x="1439" d="M172 0v1434h266v-572h561v572h269v-1434h-269v625h-561v-625h-266z" />
<glyph unicode="I" horiz-adv-x="610" d="M172 0v1434h266v-1434h-266z" />
<glyph unicode="J" horiz-adv-x="1046" d="M33 340l237 33q11 -71 60 -113.5t123 -42.5q49 0 84 21t52 56t24.5 70t7.5 74v996h268v-959q0 -500 -422 -500q-181 0 -299 100t-135 265z" />
<glyph unicode="K" horiz-adv-x="1380" d="M172 0v1434h266v-590h4l557 590h349l-545 -564l596 -870h-312l-462 684l-187 -195v-489h-266z" />
<glyph unicode="L" horiz-adv-x="1034" d="M172 0v1434h266v-1196h549v-238h-815z" />
<glyph unicode="M" horiz-adv-x="1781" d="M172 0v1434h295l424 -959h4l420 959h295v-1434h-267v958h-4l-333 -821h-228l-336 824h-4v-961h-266z" />
<glyph unicode="N" horiz-adv-x="1622" d="M172 0v1434h307l699 -1067h4v1067h268v-1434h-307l-701 1067h-4v-1067h-266z" />
<glyph unicode="O" horiz-adv-x="1662" d="M78 717q0 211 98 380.5t270.5 265t384.5 95.5t384.5 -95.5t271 -265t98.5 -380.5t-98.5 -381t-271 -265.5t-384.5 -95.5q-159 0 -298.5 56t-239.5 154t-157.5 236t-57.5 296zM348 717q0 -216 139 -358t347 -142q213 0 346 140.5t133 359.5q0 142 -63.5 257t-174.5 179 t-246 64q-214 0 -347.5 -141t-133.5 -359z" />
<glyph unicode="P" horiz-adv-x="1236" d="M172 0v1434h436q277 0 425.5 -105.5t148.5 -320.5q0 -212 -147.5 -322.5t-426.5 -110.5h-170v-575h-266zM438 813h172q301 0 301 195q0 190 -303 190h-170v-385z" />
<glyph unicode="Q" horiz-adv-x="1662" d="M78 717q0 211 98 380.5t270.5 265t384.5 95.5t384.5 -95.5t271 -265t98.5 -380.5q0 -276 -163 -474t-425 -249q39 -99 114 -155t173 -56v-227q-199 0 -339 112.5t-193 313.5q-193 16 -346.5 114t-240.5 260.5t-87 360.5zM348 717q0 -216 139 -358t347 -142 q213 0 346 140.5t133 359.5q0 142 -63.5 257t-174.5 179t-246 64q-214 0 -347.5 -141t-133.5 -359z" />
<glyph unicode="R" horiz-adv-x="1333" d="M172 0v1434h469q277 0 425 -104.5t148 -319.5q0 -142 -73 -240t-209 -141l377 -629h-299l-338 582h-234v-582h-266zM438 817h205q299 0 299 193q0 190 -301 190h-203v-383z" />
<glyph unicode="S" horiz-adv-x="1093" d="M61 170q77 86 156 174q40 -40 129 -83.5t193 -43.5q91 0 147.5 49t56.5 133q0 34 -13.5 63.5t-33.5 50t-52 40t-58.5 31.5t-63.5 28q-3 1 -5.5 2t-4.5 2q-58 22 -94.5 37t-83.5 39t-76 46t-60 54t-48 68t-28 84t-11 105q0 96 39.5 174.5t106.5 129t153.5 78t183.5 27.5 q131 0 239.5 -49t159.5 -102q-26 -30 -76 -91.5t-75 -91.5q-31 31 -97.5 60.5t-150.5 29.5q-89 0 -151 -44.5t-62 -120.5q0 -41 15 -71.5t46 -53t62.5 -37.5t81.5 -36q12 -4 18 -7q51 -20 83.5 -34t80 -39t78.5 -48t66 -57.5t55 -72t33.5 -87.5t13.5 -107q0 -196 -134 -310 t-341 -114q-83 0 -164 20t-141.5 51.5t-103.5 63t-69 60.5z" />
<glyph unicode="T" horiz-adv-x="1196" d="M45 1196v238h1106v-238h-420v-1196h-266v1196h-420z" />
<glyph unicode="U" horiz-adv-x="1409" d="M156 543v891h266v-891q0 -43 8 -86t28.5 -87t51.5 -77.5t81 -54.5t114 -21t114.5 21t81.5 54.5t51 78t27.5 86.5t7.5 86v891h266v-891q0 -78 -14 -151.5t-52.5 -151t-98 -134.5t-158.5 -94t-225 -37q-106 0 -192.5 25t-145 69.5t-101 99.5t-66 121t-34 128t-10.5 125z " />
<glyph unicode="V" horiz-adv-x="1380" d="M4 1434h281l403 -1139h4l404 1139h280l-536 -1434h-299z" />
<glyph unicode="W" horiz-adv-x="2039" d="M27 1434h274l283 -1049h4l289 1049h290l287 -1045h4l279 1045h276l-407 -1434h-297l-285 1047h-4l-287 -1047h-295z" />
<glyph unicode="X" horiz-adv-x="1316" d="M-4 0l506 752l-465 682h313l305 -478h4l308 478h309l-465 -686l510 -748h-309l-357 543h-4l-346 -543h-309z" />
<glyph unicode="Y" horiz-adv-x="1378" d="M2 1434h305l379 -627h4l381 627h305l-553 -848v-586h-268v586z" />
<glyph unicode="Z" horiz-adv-x="1236" d="M74 0v223l743 969v4h-725v238h1053v-226l-744 -966v-4h758v-238h-1085z" />
<glyph unicode="[" horiz-adv-x="722" d="M180 -315v1798h449v-238h-183v-1323h183v-237h-449z" />
<glyph unicode="\" horiz-adv-x="1001" d="M51 1450h285l612 -1466h-284z" />
<glyph unicode="]" horiz-adv-x="722" d="M94 -78h182v1323h-182v238h449v-1798h-449v237z" />
<glyph unicode="^" horiz-adv-x="1353" d="M78 557l467 877h268l463 -877h-268l-326 639h-4l-330 -639h-270z" />
<glyph unicode="_" horiz-adv-x="1103" d="M0 -121h1104v-237h-1104v237z" />
<glyph unicode="`" horiz-adv-x="647" d="M80 1511h276l211 -301h-239z" />
<glyph unicode="a" horiz-adv-x="1138" d="M53 276q0 77 36 136t95.5 96t147.5 61t179 34.5t202 12.5v33q0 80 -58.5 122t-148.5 42q-72 0 -131.5 -22t-95.5 -58l-160 170q70 65 183 105.5t247 40.5q184 0 305 -96.5t121 -274.5v-229q0 -51 3.5 -86.5t13 -66t27.5 -45.5t46 -15q18 0 18 2l17 -226q-29 -12 -76 -12 q-73 0 -136 30t-102 87h-4q-167 -142 -340 -142q-57 0 -110 9t-104.5 31t-89.5 55.5t-61.5 86.5t-23.5 119zM309 272q0 -37 28 -61t65.5 -32.5t82.5 -8.5q110 0 228 88v176q-89 -2 -156 -10.5t-126 -25.5t-90.5 -49t-31.5 -77z" />
<glyph unicode="b" horiz-adv-x="1267" d="M133 0v1495h260v-571h4q132 125 303 125q135 0 248.5 -69.5t180.5 -193.5t67 -274t-67 -274t-180.5 -193.5t-248.5 -69.5q-96 0 -183 41t-130 111h-4l-4 -127h-246zM393 338q43 -60 107.5 -93.5t140.5 -33.5q121 0 206 86t85 215t-85 215t-206 86q-152 0 -248 -133v-342z " />
<glyph unicode="c" horiz-adv-x="1042" d="M70 512q0 123 42.5 225t116.5 170t172.5 105t210.5 37q131 0 228 -47t155 -130l-176 -143q-64 84 -207 84q-115 0 -196.5 -82.5t-81.5 -218.5q0 -134 79 -217.5t208 -83.5q39 0 76 9t61 21.5t42.5 25t27.5 21.5l8 9l168 -145q-5 -7 -15.5 -19t-46.5 -42.5t-76.5 -54 t-106 -42.5t-134.5 -19q-248 0 -401.5 149t-153.5 388z" />
<glyph unicode="d" horiz-adv-x="1314" d="M72 512q0 213 126.5 362t313.5 168q208 21 358 -118h4v571h261v-1128q0 -67 26 -99t64 -32l20 2l15 -226q-29 -12 -76 -12q-78 0 -145 32t-93 95h-4q-146 -174 -430 -145q-187 19 -313.5 168t-126.5 362zM336 512q0 -129 85 -215t206 -86q75 0 139.5 33.5t107.5 93.5v342 q-45 63 -109 98t-138 35q-121 0 -206 -86t-85 -215z" />
<glyph unicode="e" horiz-adv-x="1142" d="M70 512q0 248 150.5 392.5t391.5 144.5q101 0 180.5 -25t131 -66.5t84.5 -101t47 -123.5t14 -139q0 -83 -8 -137h-733q13 -115 103.5 -185.5t217.5 -70.5q43 0 85 8.5t71.5 21t53 25t35.5 20.5l11 9l146 -166q-6 -6 -18.5 -15.5t-53 -34.5t-84.5 -44t-111.5 -34.5 t-136.5 -15.5q-251 0 -414 150.5t-163 386.5zM340 631h489q0 98 -54.5 156.5t-164.5 58.5q-99 0 -175.5 -57.5t-94.5 -157.5z" />
<glyph unicode="f" horiz-adv-x="649" d="M72 793v231h106v143q0 66 12.5 118.5t31.5 87.5t50.5 60t60.5 38.5t70.5 21t72 9t73.5 1.5q47 0 129 -14l-49 -229q-40 8 -80 8q-23 0 -38.5 -2.5t-34.5 -11.5t-28.5 -31t-9.5 -56v-143h174v-231h-174v-793h-260v793h-106z" />
<glyph unicode="g" horiz-adv-x="1241" d="M74 535q0 142 65 260.5t175 186t239 67.5q91 0 176 -41.5t125 -110.5h4l4 127h246v-1010q0 -111 -44 -198t-120.5 -139.5t-173 -79.5t-207.5 -27q-234 0 -401 104l123 197q108 -68 235 -68q135 0 231.5 67.5t96.5 182.5v94h-4q-127 -114 -291 -114q-130 0 -239.5 65 t-174.5 181t-65 256zM332 535q0 -119 82 -199t200 -80q70 0 130.5 33.5t103.5 91.5v313q-42 55 -103 87t-131 32q-118 0 -200 -79.5t-82 -198.5z" />
<glyph unicode="h" horiz-adv-x="1251" d="M131 0v1495h260v-586h4q106 113 250 131q219 18 338.5 -83.5t138.5 -303.5q11 -90 11 -157v-496h-263v553q0 121 -59 190.5t-172 69.5q-83 0 -141.5 -31.5t-106.5 -99.5v-682h-260z" />
<glyph unicode="i" horiz-adv-x="526" d="M133 0v1024h260v-1024h-260zM133 1231v260h260v-260h-260z" />
<glyph unicode="j" horiz-adv-x="528" d="M-55 -182q51 0 81 4t57.5 17t39.5 41.5t12 74.5v1069h260v-1069q0 -73 -10.5 -129t-28 -95.5t-49 -67t-64.5 -43.5t-84 -24.5t-98 -11t-116 -2.5v236zM135 1231v260h260v-260h-260z" />
<glyph unicode="k" horiz-adv-x="1163" d="M131 0v1495h260v-860h4l408 389h344l-438 -420l460 -604h-311l-338 461l-129 -107v-354h-260z" />
<glyph unicode="l" horiz-adv-x="565" d="M127 313v1182h260v-1135q2 -65 25 -97t65 -25l17 -226q-29 -12 -80 -12q-58 0 -107.5 17t-91 52.5t-65 98t-23.5 145.5z" />
<glyph unicode="m" horiz-adv-x="1820" d="M133 0v1024h246l4 -139h4q51 79 123.5 121.5t155.5 42.5q222 0 309 -181h4q54 84 139.5 132.5t181.5 48.5q186 0 294 -137.5t108 -358.5v-553h-262v553q0 121 -52 190.5t-151 69.5q-59 0 -110.5 -32t-77.5 -87v-694h-263v653q0 65 -52.5 112.5t-141.5 47.5 q-64 0 -115 -31.5t-84 -89.5v-692h-260z" />
<glyph unicode="n" horiz-adv-x="1253" d="M133 0v1024h246l4 -143h4q46 80 134 124t188 44q208 0 317 -133.5t109 -362.5v-553h-263v553q0 121 -59 190.5t-172 69.5q-83 0 -141.5 -31.5t-106.5 -99.5v-682h-260z" />
<glyph unicode="o" d="M70 512q0 231 153.5 384t388.5 153q157 0 282 -70t194 -192.5t69 -274.5t-69 -274.5t-194 -192.5t-282 -70q-235 0 -388.5 153t-153.5 384zM334 512q0 -129 79 -215t199 -86q122 0 201.5 85.5t79.5 215.5t-79.5 215.5t-201.5 85.5q-120 0 -199 -86t-79 -215z" />
<glyph unicode="p" horiz-adv-x="1314" d="M55 1012q29 12 76 12q50 0 96 -12.5t85.5 -42t56.5 -72.5h4q63 75 160.5 113.5t214.5 38.5q101 0 192 -41t157.5 -112t106 -171t39.5 -213q0 -106 -35 -201.5t-95 -164.5t-142.5 -113t-175.5 -53q-113 -6 -195.5 24t-153.5 96h-4v-510h-262v1067q0 67 -25.5 99t-64.5 32 l-18 -2zM442 344q43 -62 107.5 -97.5t138.5 -35.5q121 0 206 86t85 215t-85 215t-206 86q-75 0 -140 -33.5t-106 -93.5v-342z" />
<glyph unicode="q" horiz-adv-x="1267" d="M72 512q0 113 39.5 213t106 171t157.5 112t192 41q97 0 184.5 -41t129.5 -111h4l4 127h246v-1434h-261v510h-4q-132 -125 -303 -125q-101 0 -192 41t-157.5 112t-106 171t-39.5 213zM336 512q0 -129 85 -215t206 -86q151 0 247 133v342q-43 61 -107 94t-140 33 q-121 0 -206 -86t-85 -215z" />
<glyph unicode="r" horiz-adv-x="804" d="M133 0v1024h246l4 -168h4q43 79 122 127.5t167 48.5q58 0 110 -12q-9 -88 -28 -236q-35 7 -80 7q-91 0 -173.5 -40.5t-111.5 -111.5v-639h-260z" />
<glyph unicode="s" horiz-adv-x="917" d="M63 125q24 29 71.5 88.5t70.5 89.5q112 -96 235 -96q64 0 104 26t40 66q0 12 -3.5 22.5t-11 20t-15.5 17t-22.5 15t-25 13t-30 12t-31.5 11t-34 11.5t-34 11q-50 18 -84 32.5t-75.5 41.5t-66.5 57.5t-42 77.5t-17 104q0 144 109.5 224t283.5 80q61 0 117.5 -11.5 t93.5 -28t66 -33.5t42 -28l13 -12l-123 -186q-8 7 -23 18t-65 29t-106 18q-59 0 -100.5 -26t-41.5 -68q0 -10 3 -19t10.5 -17t14.5 -14.5t20.5 -13.5t23.5 -12t28.5 -12t29 -10.5t32.5 -11t33 -11.5q49 -16 85 -32t78 -43.5t69 -59.5t45 -80t18 -106q0 -139 -100.5 -221.5 t-280.5 -82.5q-73 0 -141.5 15.5t-114 37.5t-80.5 44t-51 38z" />
<glyph unicode="t" horiz-adv-x="708" d="M53 793v231h127v360h262v-360h176v-231h-176v-465q0 -34 9.5 -56t27.5 -31t33.5 -11.5t38.5 -2.5q35 0 80 9l49 -230q-82 -14 -129 -14q-43 0 -73.5 1.5t-72 9t-70.5 21t-60.5 38.5t-50.5 60t-31.5 87.5t-12.5 118.5v465h-127z" />
<glyph unicode="u" horiz-adv-x="1253" d="M119 471v553h260v-553q0 -121 60 -190.5t173 -69.5q83 0 141.5 31.5t104.5 99.5v682h262v-1024h-246l-4 143h-4q-48 -80 -136 -124t-187 -44q-207 0 -315.5 133.5t-108.5 362.5z" />
<glyph unicode="v" horiz-adv-x="1189" d="M18 1024h277l299 -743h4l301 743h277l-445 -1024h-274z" />
<glyph unicode="w" horiz-adv-x="1673" d="M31 1024h268l197 -680h4l217 680h233l221 -688h5l196 688h268l-313 -1024h-270l-219 655h-4l-216 -655h-270z" />
<glyph unicode="x" horiz-adv-x="1091" d="M14 0l373 539l-348 485h307l199 -313h4l199 313h303l-351 -496l379 -528h-305l-231 360h-4l-224 -360h-301z" />
<glyph unicode="y" horiz-adv-x="1179" d="M20 1024h281l297 -748h4l283 748h274l-420 -1028q-34 -81 -58.5 -131.5t-58 -102.5t-67.5 -81.5t-82 -54t-107 -34.5t-137 -10q-84 0 -174 19l60 227q49 -12 114 -12q67 0 107 19t66.5 57t64.5 122z" />
<glyph unicode="z" horiz-adv-x="1040" d="M70 0v201l520 587v5h-490v231h844v-203l-524 -585v-5h547v-231h-897z" />
<glyph unicode="{" horiz-adv-x="669" d="M70 487v193q55 0 75.5 32t20.5 111v297q0 98 28.5 170.5t79 113.5t110.5 60t132 19h51v-238h-39q-40 0 -67 -24.5t-27 -75.5v-322q0 -82 -25.5 -146t-74.5 -91v-4q49 -27 74.5 -92.5t25.5 -147.5v-322q0 -50 27 -74t67 -24h39v-237h-51q-72 0 -132 18.5t-110.5 58.5 t-79 112.5t-28.5 170.5v299q0 79 -20.5 111t-75.5 32z" />
<glyph unicode="|" horiz-adv-x="618" d="M176 -506v2026h266v-2026h-266z" />
<glyph unicode="}" horiz-adv-x="669" d="M102 -78h41q40 0 67.5 24t27.5 74v322q0 83 24.5 148.5t73.5 91.5v4q-49 27 -73.5 91t-24.5 146v322q0 51 -27.5 75.5t-67.5 24.5h-41v238h54q71 0 131 -19t110 -60t78.5 -113.5t28.5 -170.5v-297q0 -79 21 -111t75 -32v-193q-54 0 -75 -32t-21 -111v-299 q0 -79 -19 -141.5t-51.5 -103t-77.5 -67t-94.5 -37.5t-105.5 -11h-54v237z" />
<glyph unicode="~" horiz-adv-x="1445" d="M123 483q7 66 21 119.5t40.5 104t65 84.5t96.5 54.5t133 20.5q163 0 330 -112q111 -77 178 -72q52 4 80 45t45 117h221q-7 -68 -21 -121.5t-40.5 -104t-65 -84t-98 -53.5t-135.5 -20q-162 0 -303 98q-134 89 -203 84q-51 -4 -78.5 -45t-42.5 -115h-223z" />
<glyph unicode="&#xa1;" horiz-adv-x="589" d="M162 -410l10 981h246l10 -981h-266zM162 764v260h266v-260h-266z" />
<glyph unicode="&#xa2;" horiz-adv-x="1107" d="M90 512q0 201 108 336.5t283 179.5v182h242v-170q195 -26 293 -168l-176 -143q-64 84 -207 84q-115 0 -197 -82.5t-82 -218.5q0 -134 79 -217.5t208 -83.5q39 0 76 9t61 21.5t42.5 25t27.5 21.5l8 9l168 -145q-4 -6 -12.5 -15.5t-37 -35t-60.5 -46.5t-84 -42t-107 -29 v-170h-242v184q-181 43 -286 180.5t-105 333.5z" />
<glyph unicode="&#xa3;" horiz-adv-x="1239" d="M104 131q69 74 119 209.5t62 284.5h-170v215h176l2 151q1 135 63 242t171 166t245 59q139 0 287 -86l-119 -209q-90 54 -168 54q-90 0 -150.5 -64t-60.5 -162v-151h295v-215h-311q-25 -164 -144 -385l5 -2q58 30 141 30q47 0 129.5 -24.5t140.5 -28.5q53 0 98 18t99 66 l162 -180q-103 -79 -194.5 -111.5t-205.5 -32.5q-70 0 -187 31t-165 31q-85 0 -209 -62z" />
<glyph unicode="&#xa4;" horiz-adv-x="1501" d="M96 147l199 199q-72 120 -72 281q0 153 72 276l-189 195l191 164l172 -179q124 78 285 78q160 0 278 -76l176 175l187 -164l-187 -189q74 -126 74 -280q0 -157 -72 -283l197 -192l-184 -168l-187 180q-119 -78 -282 -78q-165 0 -287 80l-184 -182zM483 627 q0 -127 74 -213t197 -86q121 0 194.5 86t73.5 213q0 125 -73.5 209t-194.5 84q-123 0 -197 -84t-74 -209z" />
<glyph unicode="&#xa5;" horiz-adv-x="1490" d="M57 1434h308l378 -627h5l380 627h306l-492 -752h242v-166h-305v-127h305v-166h-305v-223h-267v223h-315v166h315v127h-315v166h252z" />
<glyph unicode="&#xa6;" horiz-adv-x="630" d="M182 -354v708h267v-708h-267zM182 657v709h267v-709h-267z" />
<glyph unicode="&#xa7;" horiz-adv-x="1060" d="M86 -98l154 176q34 -31 99.5 -61.5t147.5 -30.5q77 0 128 33t51 87t-49.5 93t-141.5 80q-40 16 -57.5 23.5t-57 25.5t-59.5 30t-53.5 33.5t-51.5 40t-41 45.5t-34.5 54.5t-20 62t-8.5 72.5q0 72 44.5 139.5t111.5 107.5v5q-115 80 -115 217q0 132 130 228.5t325 96.5 q119 -1 219 -44.5t149 -92.5l-151 -180q-29 27 -88.5 52.5t-130.5 25.5q-77 0 -132 -33t-55 -88q0 -49 47 -85t136 -75q40 -16 58.5 -23.5t58 -25.5t60 -30.5t54 -34t52 -40.5t42 -46.5t35.5 -56t20.5 -64t8.5 -74.5q0 -69 -45.5 -131.5t-108.5 -100.5v-4q54 -40 88.5 -101 t34.5 -134q0 -127 -124 -226.5t-316 -99.5q-132 0 -248 51t-166 103zM324 662q0 -59 62.5 -106t168.5 -93l66 -29q59 11 89.5 47t30.5 78q0 36 -17.5 65.5t-54.5 55t-68.5 41.5t-84.5 39l-65 28q-61 -13 -94 -48t-33 -78z" />
<glyph unicode="&#xa8;" horiz-adv-x="784" d="M80 1223v243h225v-243h-225zM479 1223v243h226v-243h-226z" />
<glyph unicode="&#xa9;" horiz-adv-x="1773" d="M86 719q0 162 57 305t158.5 249t253 168t330.5 62q181 0 333 -62t254.5 -168t159 -249t56.5 -305q0 -163 -56.5 -307t-159 -251t-254.5 -169t-333 -62q-179 0 -330.5 62t-253 169t-158.5 251t-57 307zM291 719q0 -169 71 -305.5t207.5 -217.5t315.5 -81q136 0 249.5 47 t189 129t117.5 192t42 236q0 124 -42 233.5t-117.5 191t-189 128.5t-249.5 47q-179 0 -315.5 -81t-207.5 -216.5t-71 -302.5zM455 723q0 197 127.5 326t320.5 129q98 0 188 -45t144 -121l-168 -107q-28 40 -73 64t-91 24q-104 0 -174 -77.5t-70 -192.5t69.5 -191.5 t174.5 -76.5q100 0 182 112l166 -108q-61 -82 -149.5 -135.5t-198.5 -53.5q-194 0 -321 128.5t-127 324.5z" />
<glyph unicode="&#xaa;" horiz-adv-x="856" d="M92 999q0 181 369 193v10q0 28 -28.5 43t-70.5 15q-59 0 -96 -33l-131 143q44 39 116 63.5t159 24.5q119 0 195.5 -58t76.5 -167v-119q0 -48 16.5 -71t40.5 -23l11 2l6 -188q-25 -13 -64 -13q-49 0 -93.5 20t-74.5 54h-4q-95 -88 -196 -88q-43 0 -81.5 10t-73.5 30.5 t-56 59.5t-21 92zM305 995q0 -34 68 -34q34 0 88 28v60q-156 0 -156 -54z" />
<glyph unicode="&#xab;" horiz-adv-x="1245" d="M80 524l289 443h284l-264 -445l262 -438h-284zM584 524l288 443h285l-266 -445l264 -438h-285z" />
<glyph unicode="&#xac;" horiz-adv-x="1347" d="M98 700v238h1086v-653h-266v415h-820z" />
<glyph unicode="&#xad;" horiz-adv-x="796" d="M109 414v237h579v-237h-579z" />
<glyph unicode="&#xae;" horiz-adv-x="1773" d="M86 719q0 162 57 305t158.5 249t253 168t330.5 62q181 0 333 -62t254.5 -168t159 -249t56.5 -305q0 -163 -56.5 -307t-159 -251t-254.5 -169t-333 -62q-179 0 -330.5 62t-253 169t-158.5 251t-57 307zM291 719q0 -169 71 -305.5t207.5 -217.5t315.5 -81q136 0 249.5 47 t189 129t117.5 192t42 236q0 124 -42 233.5t-117.5 191t-189 128.5t-249.5 47q-179 0 -315.5 -81t-207.5 -216.5t-71 -302.5zM553 285v882h305q387 0 387 -284q0 -83 -40 -145t-113 -95l219 -358h-236l-178 313h-143v-313h-201zM754 786h129q153 0 153 99q0 55 -39 77.5 t-116 22.5h-127v-199z" />
<glyph unicode="&#xaf;" horiz-adv-x="796" d="M80 1245v221h637v-221h-637z" />
<glyph unicode="&#xb0;" horiz-adv-x="833" d="M82 1176q0 145 95.5 239t238.5 94q146 0 240 -93.5t94 -239.5q0 -145 -94 -239.5t-240 -94.5q-143 0 -238.5 95t-95.5 239zM291 1176q0 -57 36 -94.5t89 -37.5q55 0 91 37.5t36 94.5t-36 94t-91 37q-53 0 -89 -37t-36 -94z" />
<glyph unicode="&#xb1;" horiz-adv-x="1386" d="M135 18v238h1116v-238h-1116zM135 739v238h426v305h266v-305h424v-238h-424v-299h-266v299h-426z" />
<glyph unicode="&#xb2;" horiz-adv-x="854" d="M115 588v131q0 46 17.5 90t40.5 75.5t63.5 67t69 56t74.5 51.5q10 7 15 10q60 42 90.5 71t30.5 56q0 31 -27.5 53.5t-72.5 22.5q-41 0 -74.5 -20.5t-47.5 -41.5l-13 -20l-164 84q4 7 11 19.5t34 44.5t58.5 56t84 44t111.5 20q138 0 221.5 -78.5t83.5 -183.5 q0 -45 -18 -84.5t-56.5 -75t-68.5 -57.5t-85 -56.5t-75 -48.5q-84 -59 -84 -104h397v-182h-616z" />
<glyph unicode="&#xb3;" horiz-adv-x="825" d="M82 764l172 67q4 -8 12 -18t24.5 -26t45 -26.5t63.5 -10.5q121 0 121 100q0 45 -36 69.5t-78 24.5h-80v154h82q38 0 66 23.5t28 62.5q0 26 -16.5 48.5t-45.5 29.5q-39 5 -75 -7q-51 -5 -89 -43l-165 78l5 9q6 9 10.5 15.5t14.5 19t19.5 22.5t24.5 23.5t31 23.5t37 20.5 t43 17t50 11t57 4.5q75 0 135.5 -22t96.5 -58t55 -80.5t19 -91.5q0 -61 -39.5 -109t-94.5 -67v-4q63 -18 108.5 -72t45.5 -121q0 -132 -87.5 -200t-242.5 -68q-61 0 -114.5 18t-85 40.5t-59.5 55t-37.5 48.5t-18.5 35q-1 3 -2 4z" />
<glyph unicode="&#xb4;" horiz-adv-x="647" d="M80 1210l213 301h274l-248 -301h-239z" />
<glyph unicode="&#xb5;" horiz-adv-x="1353" d="M170 -410v1434h260v-563q2 -116 62 -183t172 -67q83 0 141 31.5t104 99.5v682h262v-1024h-245l-4 143h-4q-45 -80 -126.5 -124t-173.5 -44q-129 0 -188 56v-441h-260z" />
<glyph unicode="&#xb6;" horiz-adv-x="1492" d="M59 977q0 216 124 337.5t339 119.5h760v-1690h-266v1452h-228v-1452h-266v819q-215 0 -339 110t-124 304z" />
<glyph unicode="&#xb7;" horiz-adv-x="512" d="M123 555v260h266v-260h-266z" />
<glyph unicode="&#xb8;" horiz-adv-x="624" d="M80 -424l76 129q50 -24 135 -24q71 0 71 38q0 20 -22.5 30.5t-48.5 10.5q-41 0 -80 -24l-98 98l88 166h221l-125 -133l4 -2q33 14 66 14q43 0 81.5 -15.5t67.5 -55.5t29 -99q0 -64 -39.5 -106.5t-93.5 -59t-119 -16.5q-63 0 -121.5 14.5t-91.5 34.5z" />
<glyph unicode="&#xb9;" horiz-adv-x="612" d="M39 1264l205 170h229v-846h-201v631h-4l-112 -91z" />
<glyph unicode="&#xba;" horiz-adv-x="831" d="M86 1133q0 140 93 232.5t237 92.5t236.5 -92.5t92.5 -232.5t-92.5 -233t-236.5 -93t-237 93t-93 233zM309 1133q0 -54 30.5 -90.5t76.5 -36.5t76 36.5t30 90.5t-30 90.5t-76 36.5t-76.5 -36.5t-30.5 -90.5z" />
<glyph unicode="&#xbb;" horiz-adv-x="1245" d="M88 967h283l291 -443l-289 -440h-283l262 438zM592 967h282l291 -443l-288 -440h-283l262 438z" />
<glyph unicode="&#xbc;" horiz-adv-x="1771" d="M57 1280l205 170h230v-864h-201v649h-4l-113 -90zM295 -35l924 1522h249l-923 -1522h-250zM1016 160v200l373 504h213v-518h84v-186h-84v-160h-205v160h-381zM1208 338h195v268h-4l-191 -264v-4z" />
<glyph unicode="&#xbd;" horiz-adv-x="1859" d="M57 1280l205 170h230v-864h-201v649h-4l-113 -90zM295 -35l924 1522h249l-923 -1522h-250zM1141 0v133q0 46 18 90.5t40.5 75.5t65 68.5t68.5 56.5t74 52q5 4 8.5 6.5t7.5 4.5q43 31 64 47.5t39 39t18 40.5q0 32 -26.5 55t-73.5 23q-25 0 -48.5 -8.5t-38.5 -21t-26.5 -25 t-16.5 -21.5l-5 -8l-166 86q4 8 11.5 20t34.5 44t58.5 56.5t84.5 44.5t112 20q139 0 223 -80t84 -185q0 -38 -15 -73.5t-36.5 -61.5t-56.5 -54.5t-63 -47t-69 -45t-63 -41.5q-86 -58 -86 -107h401v-184h-622z" />
<glyph unicode="&#xbe;" horiz-adv-x="1837" d="M68 782l172 68q4 -9 12 -19t24.5 -26t45 -26.5t63.5 -10.5q121 0 121 100q0 45 -36.5 70t-78.5 25h-80v153h82q38 0 66 23.5t28 62.5q0 27 -16 49t-45 29q-42 6 -76 -6q-50 -5 -88 -43l-166 78q30 46 48 64q96 102 245 102q75 0 135 -22t96 -58.5t55 -80.5t19 -91 q0 -61 -39 -109.5t-94 -66.5v-5q63 -18 108.5 -72t45.5 -120q0 -132 -87.5 -200t-242.5 -68q-61 0 -114.5 18t-85 40t-59.5 55t-37.5 48.5t-18.5 34.5q-1 3 -2 4zM373 -35l923 1522h250l-923 -1522h-250zM1096 160v200l372 504h211v-518h86v-186h-86v-160h-204v160h-379z M1286 338h195v268h-4l-191 -264v-4z" />
<glyph unicode="&#xbf;" horiz-adv-x="1036" d="M76 -47q0 65 16 117.5t48.5 94.5t64.5 71t82 65q64 48 90 88.5t26 106.5v75h267v-75q0 -96 -25 -163t-68.5 -113.5t-130.5 -113.5q-33 -24 -51 -41t-33.5 -46.5t-15.5 -65.5q0 -65 49.5 -103t124.5 -38q79 0 138.5 42t80.5 119l238 -51q-35 -163 -157 -257.5t-300 -94.5 q-193 0 -318.5 101.5t-125.5 281.5zM403 764v260h267v-260h-267z" />
<glyph unicode="&#xc0;" horiz-adv-x="1435" d="M-10 0l588 1434h282l584 -1434h-283l-125 307h-639l-127 -307h-280zM350 1849h277l213 -299h-242zM492 541h450l-221 608h-4z" />
<glyph unicode="&#xc1;" horiz-adv-x="1435" d="M-10 0l588 1434h282l584 -1434h-283l-125 307h-639l-127 -307h-280zM492 541h450l-221 608h-4zM596 1550l213 299h276l-247 -299h-242z" />
<glyph unicode="&#xc2;" horiz-adv-x="1435" d="M-10 0l588 1434h282l584 -1434h-283l-125 307h-639l-127 -307h-280zM362 1552l236 303h236l235 -303h-227l-123 146h-4l-125 -146h-228zM492 541h450l-221 608h-4z" />
<glyph unicode="&#xc3;" horiz-adv-x="1435" d="M-10 0l588 1434h282l584 -1434h-283l-125 307h-639l-127 -307h-280zM369 1571q9 122 65 192t160 70q92 0 170 -55q20 -14 36.5 -22.5t34 -12t30 1.5t23 22t15.5 45h176q-11 -121 -66 -190.5t-159 -69.5q-88 0 -160 52q-65 45 -98 43q-39 -6 -55 -76h-172zM492 541h450 l-221 608h-4z" />
<glyph unicode="&#xc4;" horiz-adv-x="1435" d="M-10 0l588 1434h282l584 -1434h-283l-125 307h-639l-127 -307h-280zM408 1591v244h227v-244h-227zM492 541h450l-221 608h-4zM807 1591v244h225v-244h-225z" />
<glyph unicode="&#xc5;" horiz-adv-x="1435" d="M-10 0l588 1434h282l584 -1434h-283l-125 307h-639l-127 -307h-280zM492 541h450l-221 608h-4zM496 1733q0 93 66 158t159 65q92 0 158.5 -65t66.5 -158q0 -95 -66.5 -159.5t-158.5 -64.5q-93 0 -159 64t-66 160zM655 1733q0 -28 19 -46t47 -18q27 0 46 18.5t19 45.5 t-19 45t-46 18q-28 0 -47 -18t-19 -45z" />
<glyph unicode="&#xc7;" horiz-adv-x="1404" d="M78 717q0 211 98.5 380.5t271.5 265t386 95.5q159 0 300 -60.5t214 -162.5l-195 -141q-46 57 -132.5 90t-186.5 33q-208 0 -347 -142t-139 -358q0 -217 137.5 -358.5t348.5 -141.5q116 0 204 44.5t138 113.5l198 -137q-73 -108 -200.5 -180t-294.5 -81l-103 -110l4 -2 q28 14 64 14q43 0 81.5 -15.5t67.5 -55.5t29 -99q0 -64 -39.5 -106.5t-93.5 -59t-119 -16.5q-61 0 -120.5 14.5t-92.5 34.5l76 129q50 -24 135 -24q72 0 72 38q0 20 -23 30.5t-49 10.5q-41 0 -80 -24l-98 98l82 158q-266 50 -430 248t-164 477z" />
<glyph unicode="&#xc8;" horiz-adv-x="1173" d="M172 0v1434h889v-238h-623v-332h574v-237h-574v-389h647v-238h-913zM311 1849h275l213 -299h-240z" />
<glyph unicode="&#xc9;" horiz-adv-x="1173" d="M172 0v1434h889v-238h-623v-332h574v-237h-574v-389h647v-238h-913zM455 1550l213 299h274l-248 -299h-239z" />
<glyph unicode="&#xca;" horiz-adv-x="1173" d="M172 0v1434h889v-238h-623v-332h574v-237h-574v-389h647v-238h-913zM272 1552l236 303h233l236 -303h-227l-123 146h-4l-125 -146h-226z" />
<glyph unicode="&#xcb;" horiz-adv-x="1173" d="M172 0v1434h889v-238h-623v-332h574v-237h-574v-389h647v-238h-913zM311 1591v244h228v-244h-228zM711 1591v244h227v-244h-227z" />
<glyph unicode="&#xcc;" horiz-adv-x="606" d="M-61 1849h276l211 -299h-240zM172 0v1434h266v-1434h-266z" />
<glyph unicode="&#xcd;" horiz-adv-x="606" d="M168 0v1434h266v-1434h-266zM180 1550l211 299h277l-248 -299h-240z" />
<glyph unicode="&#xce;" horiz-adv-x="610" d="M-47 1552l235 303h236l233 -303h-225l-125 146h-4l-123 -146h-227zM174 0v1434h266v-1434h-266z" />
<glyph unicode="&#xcf;" horiz-adv-x="612" d="M2 1591v244h221v-244h-221zM174 0v1434h266v-1434h-266zM389 1591v244h221v-244h-221z" />
<glyph unicode="&#xd0;" horiz-adv-x="1499" d="M41 637v215h147v582h478q109 0 215.5 -28t204 -87t171.5 -142t118 -201.5t44 -256.5q0 -139 -44 -258t-118 -202.5t-171.5 -143t-204 -87.5t-215.5 -28h-478v637h-147zM455 238h211q88 0 172.5 31.5t154.5 89.5t113 152t43 208q0 113 -43 206.5t-113 151t-154.5 88.5 t-172.5 31h-211v-344h401v-215h-401v-399z" />
<glyph unicode="&#xd1;" horiz-adv-x="1622" d="M172 0v1434h307l699 -1067h4v1067h268v-1434h-307l-701 1067h-4v-1067h-266zM463 1571q9 122 65 192t160 70q92 0 170 -55q27 -18 46.5 -27t38.5 -9t32.5 17.5t21.5 52.5h174q-10 -121 -65 -190.5t-160 -69.5q-86 0 -158 52q-69 45 -98 43q-39 -6 -55 -76h-172z" />
<glyph unicode="&#xd2;" horiz-adv-x="1662" d="M78 717q0 211 98 380.5t270.5 265t384.5 95.5t384.5 -95.5t271 -265t98.5 -380.5t-98.5 -381t-271 -265.5t-384.5 -95.5q-159 0 -298.5 56t-239.5 154t-157.5 236t-57.5 296zM348 717q0 -216 139 -358t347 -142q213 0 346 140.5t133 359.5q0 142 -63.5 257t-174.5 179 t-246 64q-214 0 -347.5 -141t-133.5 -359zM549 1849h274l213 -299h-239z" />
<glyph unicode="&#xd3;" horiz-adv-x="1662" d="M78 717q0 211 98 380.5t270.5 265t384.5 95.5t384.5 -95.5t271 -265t98.5 -380.5t-98.5 -381t-271 -265.5t-384.5 -95.5q-159 0 -298.5 56t-239.5 154t-157.5 236t-57.5 296zM348 717q0 -216 139 -358t347 -142q213 0 346 140.5t133 359.5q0 142 -63.5 257t-174.5 179 t-246 64q-214 0 -347.5 -141t-133.5 -359zM662 1550l212 299h277l-248 -299h-241z" />
<glyph unicode="&#xd4;" horiz-adv-x="1662" d="M78 717q0 211 98 380.5t270.5 265t384.5 95.5t384.5 -95.5t271 -265t98.5 -380.5t-98.5 -381t-271 -265.5t-384.5 -95.5q-159 0 -298.5 56t-239.5 154t-157.5 236t-57.5 296zM348 717q0 -216 139 -358t347 -142q213 0 346 140.5t133 359.5q0 142 -63.5 257t-174.5 179 t-246 64q-214 0 -347.5 -141t-133.5 -359zM479 1552l236 303h235l234 -303h-226l-124 146h-5l-124 -146h-226z" />
<glyph unicode="&#xd5;" horiz-adv-x="1662" d="M78 717q0 211 98 380.5t270.5 265t384.5 95.5t384.5 -95.5t271 -265t98.5 -380.5t-98.5 -381t-271 -265.5t-384.5 -95.5q-159 0 -298.5 56t-239.5 154t-157.5 236t-57.5 296zM348 717q0 -216 139 -358t347 -142q213 0 346 140.5t133 359.5q0 142 -63.5 257t-174.5 179 t-246 64q-214 0 -347.5 -141t-133.5 -359zM481 1571q9 121 65.5 191.5t160.5 70.5q95 0 170 -55q29 -18 48 -26.5t39 -9t33 17t21 52.5h174q-9 -120 -65 -190t-160 -70q-85 0 -160 52q-65 45 -96 43q-40 -6 -56 -76h-174z" />
<glyph unicode="&#xd6;" horiz-adv-x="1662" d="M78 717q0 211 98 380.5t270.5 265t384.5 95.5t384.5 -95.5t271 -265t98.5 -380.5t-98.5 -381t-271 -265.5t-384.5 -95.5q-159 0 -298.5 56t-239.5 154t-157.5 236t-57.5 296zM348 717q0 -216 139 -358t347 -142q213 0 346 140.5t133 359.5q0 142 -63.5 257t-174.5 179 t-246 64q-214 0 -347.5 -141t-133.5 -359zM518 1591v244h227v-244h-227zM918 1591v244h227v-244h-227z" />
<glyph unicode="&#xd7;" horiz-adv-x="1177" d="M98 977l191 168l301 -305l297 299l190 -166l-309 -311l307 -310l-190 -168l-295 297l-299 -299l-189 168l310 312z" />
<glyph unicode="&#xd8;" horiz-adv-x="1660" d="M78 715q0 211 98 380.5t270.5 265t384.5 95.5q232 0 418 -121l131 142l181 -146l-138 -147q162 -199 162 -469q0 -211 -98.5 -381t-271 -265.5t-384.5 -95.5q-237 0 -423 119l-123 -131l-179 145l130 140q-158 198 -158 469zM348 715q0 -156 80 -275l653 701 q-112 73 -252 73q-214 0 -347.5 -140.5t-133.5 -358.5zM578 289q113 -74 256 -74q213 0 346 140.5t133 359.5q0 157 -80 276z" />
<glyph unicode="&#xd9;" horiz-adv-x="1409" d="M156 543v891h266v-891q0 -43 8 -86t28.5 -87t51.5 -77.5t81 -54.5t114 -21t114.5 21t81.5 54.5t51 78t27.5 86.5t7.5 86v891h266v-891q0 -78 -14 -151.5t-52.5 -151t-98 -134.5t-158.5 -94t-225 -37q-106 0 -192.5 25t-145 69.5t-101 99.5t-66 121t-34 128t-10.5 125z M397 1849h275l213 -299h-240z" />
<glyph unicode="&#xda;" horiz-adv-x="1409" d="M156 543v891h266v-891q0 -43 8 -86t28.5 -87t51.5 -77.5t81 -54.5t114 -21t114.5 21t81.5 54.5t51 78t27.5 86.5t7.5 86v891h266v-891q0 -78 -14 -151.5t-52.5 -151t-98 -134.5t-158.5 -94t-225 -37q-106 0 -192.5 25t-145 69.5t-101 99.5t-66 121t-34 128t-10.5 125z M547 1550l213 299h274l-248 -299h-239z" />
<glyph unicode="&#xdb;" horiz-adv-x="1409" d="M156 543v891h266v-891q0 -43 8 -86t28.5 -87t51.5 -77.5t81 -54.5t114 -21t114.5 21t81.5 54.5t51 78t27.5 86.5t7.5 86v891h266v-891q0 -78 -14 -151.5t-52.5 -151t-98 -134.5t-158.5 -94t-225 -37q-106 0 -192.5 25t-145 69.5t-101 99.5t-66 121t-34 128t-10.5 125z M352 1552l236 303h235l234 -303h-228l-122 146h-5l-124 -146h-226z" />
<glyph unicode="&#xdc;" horiz-adv-x="1409" d="M156 543v891h266v-891q0 -43 8 -86t28.5 -87t51.5 -77.5t81 -54.5t114 -21t114.5 21t81.5 54.5t51 78t27.5 86.5t7.5 86v891h266v-891q0 -78 -14 -151.5t-52.5 -151t-98 -134.5t-158.5 -94t-225 -37q-106 0 -192.5 25t-145 69.5t-101 99.5t-66 121t-34 128t-10.5 125z M391 1591v244h227v-244h-227zM791 1591v244h227v-244h-227z" />
<glyph unicode="&#xdd;" horiz-adv-x="1380" d="M2 1434h307l379 -627h4l381 627h305l-555 -848v-586h-266v586zM569 1550l213 299h275l-248 -299h-240z" />
<glyph unicode="&#xde;" d="M172 0v1434h266v-271h170q277 0 425.5 -104.5t148.5 -319.5q0 -211 -147 -320.5t-427 -109.5h-170v-309h-266zM438 547h172q301 0 301 192q0 187 -303 187h-170v-379z" />
<glyph unicode="&#xdf;" horiz-adv-x="1275" d="M133 0v1092q0 207 126 314t337 107q99 0 179.5 -23t133.5 -60.5t89 -88t51.5 -103.5t15.5 -108q0 -49 -16.5 -94.5t-36.5 -75.5t-58 -65.5t-57 -50.5t-59 -43q-15 -12 -15 -19q0 -12 41 -32t65.5 -32.5t67.5 -37t70 -45.5t60.5 -53t53 -63.5t33 -73t13.5 -85.5 q0 -125 -71 -209t-190 -121.5t-280 -37.5q-91 0 -192 18l30 234q79 -17 162 -17q126 0 200.5 39t74.5 119q0 21 -7.5 41t-18.5 36t-30.5 33.5t-34.5 29t-41.5 26.5t-40.5 22.5t-41.5 21t-35.5 17.5q-80 40 -121 73.5t-41 78.5q0 65 106 149q70 54 96 84q48 58 48 121 q0 67 -51 113.5t-152 46.5q-91 0 -147 -47.5t-56 -138.5v-1092h-260z" />
<glyph unicode="&#xe0;" horiz-adv-x="1138" d="M53 276q0 77 36 136t95.5 96t147.5 61t179 34t202 13v33q0 80 -58.5 122t-148.5 42q-72 0 -131.5 -22t-95.5 -58l-160 170q70 65 183 105.5t247 40.5q184 0 305 -96.5t121 -274.5v-229q0 -51 3.5 -86.5t13 -66t27.5 -45.5t46 -15q18 0 18 2l17 -226q-29 -12 -76 -12 q-73 0 -136 30t-102 87h-4q-167 -142 -340 -142q-57 0 -110 9t-104.5 31t-89.5 55.5t-61.5 86.5t-23.5 119zM250 1511h274l213 -301h-239zM309 272q0 -37 28 -61t65.5 -32.5t82.5 -8.5q110 0 228 88v176q-89 -2 -156 -10.5t-126 -25.5t-90.5 -49t-31.5 -77z" />
<glyph unicode="&#xe1;" horiz-adv-x="1138" d="M53 276q0 77 36 136t95.5 96t147.5 61t179 34t202 13v33q0 80 -58.5 122t-148.5 42q-72 0 -131.5 -22t-95.5 -58l-160 170q70 65 183 105.5t247 40.5q184 0 305 -96.5t121 -274.5v-229q0 -51 3.5 -86.5t13 -66t27.5 -45.5t46 -15q18 0 18 2l17 -226q-29 -12 -76 -12 q-73 0 -136 30t-102 87h-4q-167 -142 -340 -142q-57 0 -110 9t-104.5 31t-89.5 55.5t-61.5 86.5t-23.5 119zM309 272q0 -37 28 -61t65.5 -32.5t82.5 -8.5q110 0 228 88v176q-89 -2 -156 -10.5t-126 -25.5t-90.5 -49t-31.5 -77zM393 1210l213 301h277l-248 -301h-242z" />
<glyph unicode="&#xe2;" horiz-adv-x="1138" d="M53 276q0 77 36 136t95.5 96t147.5 61t179 34t202 13v33q0 80 -58.5 122t-148.5 42q-72 0 -131.5 -22t-95.5 -58l-160 170q70 65 183 105.5t247 40.5q184 0 305 -96.5t121 -274.5v-229q0 -51 3.5 -86.5t13 -66t27.5 -45.5t46 -15q18 0 18 2l17 -226q-29 -12 -76 -12 q-73 0 -136 30t-102 87h-4q-167 -142 -340 -142q-57 0 -110 9t-104.5 31t-89.5 55.5t-61.5 86.5t-23.5 119zM201 1210l235 303h236l235 -303h-227l-123 146h-4l-125 -146h-227zM309 272q0 -37 28 -61t65.5 -32.5t82.5 -8.5q110 0 228 88v176q-89 -2 -156 -10.5t-126 -25.5 t-90.5 -49t-31.5 -77z" />
<glyph unicode="&#xe3;" horiz-adv-x="1138" d="M53 276q0 77 36 136t95.5 96t147.5 61t179 34t202 13v33q0 80 -58.5 122t-148.5 42q-72 0 -131.5 -22t-95.5 -58l-160 170q70 65 183 105.5t247 40.5q184 0 305 -96.5t121 -274.5v-229q0 -51 3.5 -86.5t13 -66t27.5 -45.5t46 -15q18 0 18 2l17 -226q-29 -12 -76 -12 q-73 0 -136 30t-102 87h-4q-167 -142 -340 -142q-57 0 -110 9t-104.5 31t-89.5 55.5t-61.5 86.5t-23.5 119zM188 1251q6 78 31 135.5t75 92t120 34.5q92 0 170 -55q60 -41 86 -39q41 6 53 74h176q-5 -59 -20.5 -105.5t-42.5 -82t-68.5 -54t-95.5 -18.5q-90 0 -158 49 q-29 20 -50.5 30.5t-43 11.5t-37 -17t-23.5 -56h-172zM309 272q0 -28 15.5 -48.5t42 -32t56 -16.5t62.5 -5q110 0 228 88v176q-89 -2 -156 -10.5t-126 -25.5t-90.5 -49t-31.5 -77z" />
<glyph unicode="&#xe4;" horiz-adv-x="1138" d="M53 276q0 77 36 136t95.5 96t147.5 61t179 34t202 13v33q0 80 -58.5 122t-148.5 42q-72 0 -131.5 -22t-95.5 -58l-160 170q70 65 183 105.5t247 40.5q184 0 305 -96.5t121 -274.5v-229q0 -51 3.5 -86.5t13 -66t27.5 -45.5t46 -15q18 0 18 2l17 -226q-29 -12 -76 -12 q-73 0 -136 30t-102 87h-4q-167 -142 -340 -142q-57 0 -110 9t-104.5 31t-89.5 55.5t-61.5 86.5t-23.5 119zM233 1223v243h226v-243h-226zM309 272q0 -37 28 -61t65.5 -32.5t82.5 -8.5q110 0 228 88v176q-89 -2 -156 -10.5t-126 -25.5t-90.5 -49t-31.5 -77zM633 1223v243 h225v-243h-225z" />
<glyph unicode="&#xe5;" horiz-adv-x="1138" d="M53 276q0 77 36 136t95.5 96t147.5 61t179 34t202 13v33q0 80 -58.5 122t-148.5 42q-72 0 -131.5 -22t-95.5 -58l-160 170q70 65 183 105.5t247 40.5q184 0 305 -96.5t121 -274.5v-229q0 -51 3.5 -86.5t13 -66t27.5 -45.5t46 -15q18 0 18 2l17 -226q-29 -12 -76 -12 q-73 0 -136 30t-102 87h-4q-167 -142 -340 -142q-57 0 -110 9t-104.5 31t-89.5 55.5t-61.5 86.5t-23.5 119zM309 272q0 -37 28 -61t65.5 -32.5t82.5 -8.5q110 0 228 88v176q-89 -2 -156 -10.5t-126 -25.5t-90.5 -49t-31.5 -77zM319 1391q0 93 66.5 158t159.5 65 q92 0 158.5 -65t66.5 -158q0 -95 -66.5 -159.5t-158.5 -64.5q-94 0 -160 64t-66 160zM479 1391q0 -28 19 -46t47 -18q27 0 45 18.5t18 45.5t-18 45t-45 18q-28 0 -47 -18t-19 -45z" />
<glyph unicode="&#xe7;" horiz-adv-x="1044" d="M72 512q0 123 42.5 225t116.5 170t172.5 105t210.5 37q131 0 228 -47t155 -130l-176 -143q-64 84 -207 84q-115 0 -196.5 -82.5t-81.5 -218.5q0 -134 79 -217.5t208 -83.5q39 0 76 9t61 21.5t42.5 25t27.5 21.5l8 9l168 -145q-5 -6 -14 -17t-41 -38.5t-68.5 -49.5 t-94.5 -42.5t-120 -24.5l-103 -113q1 0 2 -1t2 -1q28 14 64 14q43 0 81.5 -15.5t67.5 -55.5t29 -99q0 -48 -22 -85t-59.5 -57t-80 -30t-88.5 -10q-63 0 -122.5 14.5t-90.5 34.5l74 129q54 -24 135 -24q74 0 74 38q0 20 -23.5 30.5t-50.5 10.5q-39 0 -80 -24l-98 98l84 162 q-180 43 -285.5 181.5t-105.5 334.5z" />
<glyph unicode="&#xe8;" horiz-adv-x="1142" d="M70 512q0 248 150.5 392.5t391.5 144.5q101 0 180.5 -25t131 -66.5t84.5 -101t47 -123.5t14 -139q0 -83 -8 -137h-733q13 -115 103.5 -185.5t217.5 -70.5q43 0 85 8.5t71.5 21t53 25t35.5 20.5l11 9l146 -166q-6 -6 -18.5 -15.5t-53 -34.5t-84.5 -44t-111.5 -34.5 t-136.5 -15.5q-251 0 -414 150.5t-163 386.5zM252 1511h276l213 -301h-241zM340 631h489q0 98 -54.5 156.5t-164.5 58.5q-99 0 -175.5 -57.5t-94.5 -157.5z" />
<glyph unicode="&#xe9;" horiz-adv-x="1142" d="M70 512q0 248 150.5 392.5t391.5 144.5q101 0 180.5 -25t131 -66.5t84.5 -101t47 -123.5t14 -139q0 -83 -8 -137h-733q13 -115 103.5 -185.5t217.5 -70.5q43 0 85 8.5t71.5 21t53 25t35.5 20.5l11 9l146 -166q-6 -6 -18.5 -15.5t-53 -34.5t-84.5 -44t-111.5 -34.5 t-136.5 -15.5q-251 0 -414 150.5t-163 386.5zM340 631h489q0 98 -54.5 156.5t-164.5 58.5q-99 0 -175.5 -57.5t-94.5 -157.5zM446 1210l211 301h277l-248 -301h-240z" />
<glyph unicode="&#xea;" horiz-adv-x="1142" d="M70 512q0 248 150.5 392.5t391.5 144.5q101 0 180.5 -25t131 -66.5t84.5 -101t47 -123.5t14 -139q0 -83 -8 -137h-733q13 -115 103.5 -185.5t217.5 -70.5q43 0 85 8.5t71.5 21t53 25t35.5 20.5l11 9l146 -166q-6 -6 -18.5 -15.5t-53 -34.5t-84.5 -44t-111.5 -34.5 t-136.5 -15.5q-251 0 -414 150.5t-163 386.5zM246 1210l235 303h234l235 -303h-227l-123 146h-4l-125 -146h-225zM340 631h489q0 98 -54.5 156.5t-164.5 58.5q-99 0 -175.5 -57.5t-94.5 -157.5z" />
<glyph unicode="&#xeb;" horiz-adv-x="1142" d="M70 512q0 248 150.5 392.5t391.5 144.5q101 0 180.5 -25t131 -66.5t84.5 -101t47 -123.5t14 -139q0 -83 -8 -137h-733q13 -115 103.5 -185.5t217.5 -70.5q43 0 85 8.5t71.5 21t53 25t35.5 20.5l11 9l146 -166q-6 -6 -18.5 -15.5t-53 -34.5t-84.5 -44t-111.5 -34.5 t-136.5 -15.5q-251 0 -414 150.5t-163 386.5zM285 1223v243h227v-243h-227zM340 631h489q0 98 -54.5 156.5t-164.5 58.5q-99 0 -175.5 -57.5t-94.5 -157.5zM684 1223v243h227v-243h-227z" />
<glyph unicode="&#xec;" horiz-adv-x="524" d="M-104 1511h276l211 -301h-240zM135 0v1024h260v-1024h-260z" />
<glyph unicode="&#xed;" horiz-adv-x="524" d="M129 0v1024h262v-1024h-262zM141 1210l213 301h275l-248 -301h-240z" />
<glyph unicode="&#xee;" horiz-adv-x="528" d="M-86 1210l236 303h235l233 -303h-225l-125 146h-4l-123 -146h-227zM135 0v1024h260v-1024h-260z" />
<glyph unicode="&#xef;" horiz-adv-x="530" d="M-37 1223v243h221v-243h-221zM135 0v1024h260v-1024h-260zM350 1223v243h221v-243h-221z" />
<glyph unicode="&#xf0;" horiz-adv-x="1206" d="M70 483q0 217 149.5 362.5t370.5 145.5q90 0 186 -49l2 4q-118 121 -272 234l-223 -164l-90 123l180 131q-56 38 -154 98l96 158q138 -86 217 -140l199 146l90 -123l-162 -119q474 -375 474 -796q0 -226 -149.5 -372.5t-383.5 -146.5q-230 0 -380 144.5t-150 363.5z M334 483q0 -117 75.5 -194.5t190.5 -77.5q118 0 193 77t75 195t-75 195.5t-193 77.5q-115 0 -190.5 -78t-75.5 -195z" />
<glyph unicode="&#xf1;" horiz-adv-x="1253" d="M133 0v1024h246l4 -143h4q46 80 134 124t188 44q208 0 317 -133.5t109 -362.5v-553h-263v553q0 121 -59 190.5t-172 69.5q-83 0 -141.5 -31.5t-106.5 -99.5v-682h-260zM283 1251q10 121 65.5 191.5t159.5 70.5q92 0 170 -55q60 -41 86 -39q41 6 53 74h176 q-24 -260 -225 -260q-92 0 -160 49q-27 21 -49.5 31.5t-43.5 11t-36.5 -18t-23.5 -55.5h-172z" />
<glyph unicode="&#xf2;" d="M70 512q0 231 153.5 384t388.5 153q157 0 282 -70t194 -192.5t69 -274.5t-69 -274.5t-194 -192.5t-282 -70q-235 0 -388.5 153t-153.5 384zM268 1511h275l213 -301h-240zM334 512q0 -129 79 -215t199 -86q122 0 201.5 85.5t79.5 215.5t-79.5 215.5t-201.5 85.5 q-120 0 -199 -86t-79 -215z" />
<glyph unicode="&#xf3;" d="M70 512q0 231 153.5 384t388.5 153q157 0 282 -70t194 -192.5t69 -274.5t-69 -274.5t-194 -192.5t-282 -70q-235 0 -388.5 153t-153.5 384zM334 512q0 -129 79 -215t199 -86q122 0 201.5 85.5t79.5 215.5t-79.5 215.5t-201.5 85.5q-120 0 -199 -86t-79 -215zM471 1210 l213 301h274l-247 -301h-240z" />
<glyph unicode="&#xf4;" d="M70 512q0 231 153.5 384t388.5 153q157 0 282 -70t194 -192.5t69 -274.5t-69 -274.5t-194 -192.5t-282 -70q-235 0 -388.5 153t-153.5 384zM260 1210l236 303h233l236 -303h-228l-123 146h-4l-125 -146h-225zM334 512q0 -129 79 -215t199 -86q122 0 201.5 85.5 t79.5 215.5t-79.5 215.5t-201.5 85.5q-120 0 -199 -86t-79 -215z" />
<glyph unicode="&#xf5;" d="M70 512q0 231 153.5 384t388.5 153q157 0 282 -70t194 -192.5t69 -274.5t-69 -274.5t-194 -192.5t-282 -70q-235 0 -388.5 153t-153.5 384zM258 1251q10 121 65.5 191.5t159.5 70.5q92 0 170 -55q60 -41 86 -39q42 6 54 74h176q-11 -122 -66.5 -191t-159.5 -69 q-88 0 -159 49q-129 98 -152 -31h-174zM334 512q0 -129 79 -215t199 -86q122 0 201.5 85.5t79.5 215.5t-79.5 215.5t-201.5 85.5q-120 0 -199 -86t-79 -215z" />
<glyph unicode="&#xf6;" d="M70 512q0 231 153.5 384t388.5 153q157 0 282 -70t194 -192.5t69 -274.5t-69 -274.5t-194 -192.5t-282 -70q-235 0 -388.5 153t-153.5 384zM299 1223v243h227v-243h-227zM334 512q0 -129 79 -215t199 -86q122 0 201.5 85.5t79.5 215.5t-79.5 215.5t-201.5 85.5 q-120 0 -199 -86t-79 -215zM698 1223v243h228v-243h-228z" />
<glyph unicode="&#xf7;" horiz-adv-x="1337" d="M111 545v237h1116v-237h-1116zM537 123v260h266v-260h-266zM537 942v260h266v-260h-266z" />
<glyph unicode="&#xf8;" horiz-adv-x="1273" d="M57 70l129 131q-92 134 -92 311q0 231 154 384t389 153q165 0 297 -80l119 123l164 -144l-125 -129q90 -136 90 -307q0 -152 -69 -274.5t-194 -192.5t-282 -70q-168 0 -293 78l-123 -127zM358 512q0 -56 21 -121l381 393q-60 29 -123 29q-120 0 -199.5 -86t-79.5 -215z M516 238q62 -27 121 -27q122 0 201.5 85.5t79.5 215.5q0 62 -21 117z" />
<glyph unicode="&#xf9;" horiz-adv-x="1253" d="M119 471v553h260v-553q0 -121 60 -190.5t173 -69.5q83 0 141.5 31.5t104.5 99.5v682h262v-1024h-246l-4 143h-4q-48 -80 -136 -124t-187 -44q-207 0 -315.5 133.5t-108.5 362.5zM293 1511h276l211 -301h-239z" />
<glyph unicode="&#xfa;" horiz-adv-x="1253" d="M119 471v553h260v-553q0 -121 60 -190.5t173 -69.5q83 0 141.5 31.5t104.5 99.5v682h262v-1024h-246l-4 143h-4q-48 -80 -136 -124t-187 -44q-207 0 -315.5 133.5t-108.5 362.5zM455 1210l213 301h276l-248 -301h-241z" />
<glyph unicode="&#xfb;" horiz-adv-x="1253" d="M119 471v553h260v-553q0 -121 60 -190.5t173 -69.5q83 0 141.5 31.5t104.5 99.5v682h262v-1024h-246l-4 143h-4q-48 -80 -136 -124t-187 -44q-207 0 -315.5 133.5t-108.5 362.5zM266 1210l236 303h235l234 -303h-226l-124 146h-5l-124 -146h-226z" />
<glyph unicode="&#xfc;" horiz-adv-x="1253" d="M119 471v553h260v-553q0 -121 60 -190.5t173 -69.5q83 0 141.5 31.5t104.5 99.5v682h262v-1024h-246l-4 143h-4q-48 -80 -136 -124t-187 -44q-207 0 -315.5 133.5t-108.5 362.5zM307 1223v243h225v-243h-225zM707 1223v243h225v-243h-225z" />
<glyph unicode="&#xfd;" horiz-adv-x="1179" d="M20 1024h281l297 -748h4l283 748h274l-420 -1028q-34 -81 -58.5 -131.5t-58 -102.5t-67.5 -81.5t-82 -54t-107 -34.5t-137 -10q-84 0 -174 19l60 227q49 -12 114 -12q67 0 107 19t66.5 57t64.5 122zM455 1210l211 301h276l-248 -301h-239z" />
<glyph unicode="&#xfe;" horiz-adv-x="1265" d="M131 -410v1905h260v-598h4q50 69 135 110.5t181 41.5q201 0 342 -154.5t141 -382.5q0 -150 -67 -274t-180.5 -193.5t-248.5 -69.5q-171 0 -303 125h-4v-510h-260zM391 344q96 -133 248 -133q121 0 206 86t85 215t-85 215t-206 86q-76 0 -140.5 -33.5t-107.5 -93.5v-342z " />
<glyph unicode="&#xff;" horiz-adv-x="1179" d="M20 1024h281l297 -748h4l283 748h274l-420 -1028q-34 -81 -58.5 -131.5t-58 -102.5t-67.5 -81.5t-82 -54t-107 -34.5t-137 -10q-84 0 -174 19l60 227q49 -12 114 -12q67 0 107 19t66.5 57t64.5 122zM291 1223v243h227v-243h-227zM690 1223v243h228v-243h-228z" />
<glyph unicode="&#x178;" horiz-adv-x="1380" d="M2 1434h307l379 -627h4l381 627h305l-555 -848v-586h-266v586zM379 1591v244h227v-244h-227zM778 1591v244h228v-244h-228z" />
<glyph unicode="&#x2c6;" horiz-adv-x="864" d="M80 1210l235 303h236l233 -303h-225l-125 146h-4l-123 -146h-227z" />
<glyph unicode="&#x2dc;" horiz-adv-x="870" d="M80 1251q10 121 65.5 191.5t159.5 70.5q92 0 170 -55q60 -41 86 -39q41 6 53 74h177q-11 -122 -66.5 -191t-159.5 -69q-91 0 -159 49q-37 28 -65.5 38.5t-53 -5t-35.5 -64.5h-172z" />
<glyph unicode="&#x2000;" horiz-adv-x="978" />
<glyph unicode="&#x2001;" horiz-adv-x="1956" />
<glyph unicode="&#x2002;" horiz-adv-x="978" />
<glyph unicode="&#x2003;" horiz-adv-x="1956" />
<glyph unicode="&#x2004;" horiz-adv-x="652" />
<glyph unicode="&#x2005;" horiz-adv-x="489" />
<glyph unicode="&#x2006;" horiz-adv-x="326" />
<glyph unicode="&#x2007;" horiz-adv-x="326" />
<glyph unicode="&#x2008;" horiz-adv-x="244" />
<glyph unicode="&#x2009;" horiz-adv-x="391" />
<glyph unicode="&#x200a;" horiz-adv-x="108" />
<glyph unicode="&#x2010;" horiz-adv-x="796" d="M109 414v237h579v-237h-579z" />
<glyph unicode="&#x2011;" horiz-adv-x="796" d="M109 414v237h579v-237h-579z" />
<glyph unicode="&#x2012;" horiz-adv-x="796" d="M109 414v237h579v-237h-579z" />
<glyph unicode="&#x2013;" horiz-adv-x="1026" d="M109 414v237h809v-237h-809z" />
<glyph unicode="&#x2014;" horiz-adv-x="1443" d="M109 414v237h1226v-237h-1226z" />
<glyph unicode="&#x2018;" horiz-adv-x="559" d="M63 1436h254l146 -492h-238z" />
<glyph unicode="&#x2019;" horiz-adv-x="559" d="M96 944l148 492h252l-160 -492h-240z" />
<glyph unicode="&#x201a;" horiz-adv-x="555" d="M23 -297l147 492h252l-160 -492h-239z" />
<glyph unicode="&#x201c;" horiz-adv-x="980" d="M63 1436h254l146 -492h-238zM483 1436h254l148 -492h-240z" />
<glyph unicode="&#x201d;" horiz-adv-x="980" d="M96 944l148 492h252l-160 -492h-240zM516 944l148 492h254l-162 -492h-240z" />
<glyph unicode="&#x201e;" horiz-adv-x="976" d="M23 -297l147 492h252l-160 -492h-239zM442 -297l148 492h254l-162 -492h-240z" />
<glyph unicode="&#x2022;" horiz-adv-x="1112" d="M147 727q0 172 112.5 289t295.5 117q184 0 297 -117t113 -289q0 -174 -113 -292t-297 -118q-183 0 -295.5 118.5t-112.5 291.5z" />
<glyph unicode="&#x202f;" horiz-adv-x="391" />
<glyph unicode="&#x2039;" horiz-adv-x="741" d="M80 524l289 443h284l-264 -445l262 -438h-284z" />
<glyph unicode="&#x203a;" horiz-adv-x="741" d="M88 967h283l291 -443l-289 -440h-283l262 438z" />
<glyph unicode="&#x205f;" horiz-adv-x="489" />
<glyph unicode="&#x20ac;" horiz-adv-x="1538" d="M82 479v166h117q-2 23 -2 72q0 51 4 76h-115v165h145q71 226 261 363t440 137q283 0 483 -172l-76 -207q-174 138 -407 138q-136 0 -245 -70t-165 -189h772l-61 -165h-762q-4 -50 -4 -76t4 -72h707l-62 -166h-596q56 -121 165.5 -191.5t246.5 -70.5q107 0 200 38t160 107 l174 -165q-100 -105 -238 -163.5t-296 -58.5q-252 0 -442 137.5t-259 366.5h-149z" />
<glyph unicode="&#x2122;" horiz-adv-x="1910" d="M74 1245v189h655v-189h-221v-645h-213v645h-221zM842 600v834h221l235 -521h5l233 521h221v-834h-213v426h-4l-158 -373h-161l-162 375h-4v-428h-213z" />
<glyph unicode="&#xe000;" horiz-adv-x="1024" d="M0 0v1024h1024v-1024h-1024z" />
</font>
</defs>
</svg>
