<svg xmlns="http://www.w3.org/2000/svg" xmlns:xlink="http://www.w3.org/1999/xlink" version="1.1" id="Layer_1" x="0px" y="0px" viewBox="0 0 265 235" style="enable-background:new 0 0 265 235;" xml:space="preserve">
<rect x="55.7" y="40.2" transform="matrix(0.7071 -0.7071 0.7071 0.7071 -44.1373 128.4435)" style="fill:#3B57A0;" width="154.5" height="154.5"/>
<g>
	
		<rect x="58.8" y="43.3" transform="matrix(0.7071 -0.7071 0.7071 0.7071 -44.1372 128.4437)" style="fill:#6279B3;" width="148.4" height="148.4"/>
</g>
<rect x="61.2" y="45.8" transform="matrix(0.7071 -0.7071 0.7071 0.7071 -44.1374 128.4433)" style="fill:#3B57A0;" width="143.5" height="143.5"/>
<path style="fill:#0D1C38;" d="M178.474 168.204c-3.113 1.324-10.222 2.695-10.222 2.695c5.396-3.594 9.193-9.105 9.292-18.12 c0.083-7.499-3.512-17.808-10.825-22.766l1.905-0.65c9.447 2.1 14.7 1.5 23.695-1.301v-3.438l2.881 4.9 c8.192 0.4 14.662-0.246 21.65-3.158l-0.093-1.487c4.958 3.5 9.8 5.2 16.3 4.367l0.279 1.9 c10.521 1.2 15.7 0.5 20.628-2.881c2.055-12.918 2.636-21.903 2.416-32.986c-0.854-0.131-2.857-0.65-4.646-1.115l2.695-15.238 c-4.575-3.081-8.031-4.54-13.59-4.716c-12.073-0.381-17.734 2.096-25.437 10.477l-0.836-7.898 c-9.459-2.08-14.601-1.972-23.044 1.022l0.186 5.11l-3.275-5.993l-7.178-0.418c6.133-13.172 3.135-32.19-14.077-31.965 c-8.225 0.107-11.876 1.303-16.447 5.482c-3.859-3.84-7.388-4.644-15.053-3.253c-0.075-3.13-0.242-5.367-1.58-8.362 c-18.663 1.215-29.323 1.166-47.552 0.952c-1.017 6.401-1.202 11.084-0.023 19.676l6.876 0.279l-0.093 16.6 c-15.691-0.79-29.699-0.686-45.81 0.093l-0.651 4.088c-5.532-6.388-17.395-6.767-39.305-2.229 c2.293 21.6 3.9 36.6 4.4 53.708c0.093-0.093 23.695-3.066 23.695-3.066s-0.65-8.363-0.743-8.363 c4.895-1.395 7.841-2.995 11.243-5.946v14.495l20.35 0.65c1.237 5.9 1.6 14 1.3 23.4 c3.345 0.4 6.038-0.279 11.476-1.161l-12.544 11.429l-1.394 19.514c7.61-1.758 15.988-3.682 31.082-2.23 c14.496 1.4 39.3 12.8 63.6 10.872c26.833-2.079 39.225-13.999 38.121-28.573c-0.348-4.6-5.931-8.238-10.802-7.805 C180.088 155.5 175.9 162.6 178.5 168.204z"/>
<path style="fill:#5E9BF8;" d="M179.589 166.253c-3.113 1.324-10.221 2.694-10.221 2.694c5.396-3.593 9.192-9.104 9.292-18.119 c0.083-7.499-3.512-17.808-10.825-22.766l1.905-0.65c9.447 2.1 14.7 1.5 23.695-1.301v-3.438l2.88 4.9 c8.193 0.4 14.662-0.246 21.65-3.159l-0.093-1.486c4.959 3.5 9.8 5.2 16.3 4.367l0.279 1.9 c10.521 1.2 15.7 0.5 20.628-2.881c2.055-12.918 2.636-21.904 2.416-32.986c-0.854-0.131-2.857-0.65-4.646-1.115l2.695-15.239 c-4.575-3.08-8.03-4.539-13.589-4.716c-12.073-0.38-17.734 2.097-25.437 10.478l-0.836-7.898c-9.459-2.08-14.601-1.972-23.044 1 l0.186 5.11l-3.275-5.993l-7.178-0.419c6.133-13.171 3.134-32.189-14.078-31.964c-8.225 0.107-11.876 1.303-16.447 5.5 c-3.86-3.84-7.388-4.643-15.053-3.252c-0.075-3.131-0.241-5.367-1.58-8.362c-18.664 1.214-29.324 1.166-47.552 1 c-1.017 6.401-1.201 11.084-0.023 19.676l6.876 0.279l-0.093 16.632c-15.691-0.789-29.699-0.685-45.81 0.094l-0.651 4.1 c-5.532-6.388-17.395-6.767-39.305-2.229c2.293 21.6 3.9 36.6 4.4 53.708c0.093-0.093 23.695-3.066 23.695-3.066 s-0.65-8.363-0.744-8.363c4.895-1.395 7.841-2.995 11.244-5.946v14.495l20.35 0.65c1.237 5.9 1.6 14 1.3 23.4 c3.345 0.4 6.038-0.28 11.476-1.161l-12.544 11.429l-1.394 19.514c7.61-1.758 15.988-3.682 31.082-2.23 c14.496 1.4 39.3 12.8 63.6 10.872c26.833-2.079 39.225-14 38.121-28.573c-0.349-4.6-5.931-8.238-10.802-7.806 C181.203 153.5 177 160.7 179.6 166.253z"/>
<path style="fill:#3B57A0;" d="M213.642 166.314c0 3.235-2.601 5.801-5.907 5.801c-3.305 0-5.941-2.565-5.941-5.801 s2.637-5.767 5.976-5.767C211.042 160.5 213.6 163.1 213.6 166.314z M203.269 166.314c0 2.6 1.9 4.6 4.5 4.6 c2.497 0 4.395-2.038 4.395-4.572c0-2.565-1.898-4.642-4.464-4.642C205.204 161.7 203.3 163.8 203.3 166.314z M206.822 169.304h-1.337v-5.767c0.526-0.071 1.266-0.178 2.216-0.178c1.091 0 1.6 0.2 2 0.5 c0.349 0.2 0.6 0.7 0.6 1.231c0 0.704-0.527 1.159-1.195 1.371v0.069c0.562 0.2 0.8 0.6 1 1.4 c0.175 0.9 0.3 1.2 0.4 1.406h-1.406c-0.174-0.212-0.28-0.704-0.458-1.406c-0.104-0.599-0.455-0.879-1.195-0.879h-0.632 V169.304z M206.856 166.068h0.633c0.739 0 1.337-0.246 1.337-0.845c0-0.527-0.387-0.88-1.231-0.88c-0.352 0-0.599 0.038-0.739 0.1 V166.068z"/>
<path style="fill:#3C4B72;" d="M89.642 43.05c9.701 0.1 16.8 0.3 27.7 0.562l-0.418 10.7 c-1.533 0.422-4.233 0.442-6.875 0.375l-0.093 18.373l-12.753-0.188V54.299l-7.248-0.422C89.486 49.5 89.4 47 89.6 43.05z "/>
<path style="fill:#3C4B72;" d="M119.423 42.862c3.703-0.822 6.314-0.749 10.732-0.844c0.228 3.7 0.4 6.7 0.2 11 c0 0 5.341-3.534 10.593-3.375c7.562 0.2 9.2 5.2 8 23.67L137.728 73c-0.287-6.949 1.015-13.601-0.79-15.42 c-1.727-1.741-5.15 0.233-6.086 2.39c-1.243 2.861-0.929 7.922-0.697 12.843c-4.129 0.605-6.631 0.825-10.779 0.2 C119.219 60.8 119.3 51.9 119.4 42.862z"/>
<path style="fill:#3C4B72;" d="M166.268 47.864c-5.94 0.034-15.401 0.987-15.75 13.15c-0.245 8.5 6.2 12.9 17.4 12.8 c3.465-0.045 6.643-0.895 9.583-2.183c-0.29-1.153-1.012-3.982-1.742-6.221c-6.133 2.742-11.605 1.617-14.426-0.47 c6.721-0.296 12.817-1.111 18.05-2.309C180.03 51.8 174.2 47.8 166.3 47.864z M169.694 58.5 c-4.848 0.782-7.423 0.715-9.199 0.703c0 0 2.205-3.107 5.528-3.278C167.489 55.9 170 56.5 169.7 58.539z"/>
<path style="fill:#FED341;" d="M91.314 44.155c9.7 0.1 16.8 0.3 27.7 0.558l-0.418 10.6 c-1.533 0.418-4.233 0.438-6.876 0.372l-0.093 18.212l-12.753-0.186V55.306l-7.248-0.418C91.159 50.6 91.1 48.1 91.3 44.2 z"/>
<path style="fill:#FED341;" d="M121.095 43.97c3.704-0.814 6.314-0.742 10.732-0.836c0.228 3.7 0.4 6.6 0.2 10.9 c0 0 5.341-3.503 10.593-3.345c7.562 0.2 9.2 5.2 8 23.462l-11.244-0.278c-0.287-6.889 1.015-13.482-0.79-15.285 c-1.727-1.726-5.15 0.231-6.086 2.369c-1.242 2.836-0.929 7.852-0.697 12.73c-4.129 0.6-6.631 0.816-10.779 0.2 C120.891 61.7 120.9 52.9 121.1 43.97z"/>
<path style="fill:#FED341;" d="M167.94 48.928c-5.94 0.033-15.402 0.979-15.75 13.035c-0.246 8.4 6.2 12.8 17.4 12.7 c3.465-0.045 6.643-0.887 9.584-2.163c-0.29-1.143-1.012-3.947-1.743-6.166c-6.132 2.718-11.604 1.603-14.426-0.466 c6.721-0.293 12.818-1.102 18.05-2.289C181.703 52.8 175.9 48.9 167.9 48.928z M171.366 59.5 c-4.848 0.774-7.423 0.708-9.199 0.697c0 0 2.205-3.081 5.528-3.251C169.161 56.9 171.7 57.5 171.4 59.51z"/>
<path style="fill:#3C4B72;" d="M81.314 80.221c12.107 0.5 20.9 1.1 34.6 2.026l-1.068 16 c-1.936 0.566-5.308 0.481-8.604 0.268l-1.057 27.481l-15.913-0.825l0.95-27.766l-9.027-0.94C80.789 89.9 80.9 86.1 81.3 80.2 z"/>
<path style="fill:#3C4B72;" d="M117.011 81.362c12.113-0.358 20.961-0.454 34.655-0.537l0.114 16 c-1.889 0.707-5.257 0.872-8.561 0.902l0.978 27.484l-15.93 0.353l-1.105-27.76l-9.072-0.271 C117.203 91.1 117 87.3 117 81.362z"/>
<path style="fill:#3C4B72;" d="M48.293 92.334c-2.788-14.448-15.937-15.192-36.612-10.638c2.11 17.4 3.1 27.4 4.1 44.9 l14.635-1.533l-0.744-8.318C45.305 113.1 50.7 104.8 48.3 92.334z M27.665 101.58c-0.418-2.091-0.591-5.201-0.557-8.362 c3.297-0.511 7.024-1.662 8.4 2.417C36.947 99.8 32.5 101.4 27.7 101.58z"/>
<path style="fill:#3C4B72;" d="M79.142 124.718c-6.086 0.79-17.19 0.186-28.991-0.372c-0.135-0.074-0.129-35.274 1.022-43.626 c9.664 0.4 22.742-0.069 28.2 0.325c0.581 4.228-0.116 8.665-0.882 10.918c-2.625 0.372-9.037 0.116-12.173 0 c0.023 0.743-0.139 3.322-0.093 5.204c1.44 0.7 7 0.2 9 0.604c0.592 2.5 0.3 4.855-0.14 7.7 c-1.219-0.244-7.317-0.104-8.642 0.371c0.047-0.046 0.3 3.7 0.2 5.297c2.974 1 9.9 0.8 12.5 0.6 C79.896 118.4 79.7 121.2 79.1 124.718z"/>
<path style="fill:#3C4B72;" d="M168.252 79.837c-6.285-0.123-9.918 0.358-14.635 1.185c-1.283 16.947-1.57 28.544-1.673 43.6 c5.981 1.5 9.5 1.8 14.8 0.628C167.088 124.8 168.8 85.6 168.3 79.837z"/>
<path style="fill:#3C4B72;" d="M171.807 125.693c-0.843-17.587-1.517-27.288-1.881-43.557c5.59-0.963 10.441-0.887 15.192-0.487 l10.941 16.586l-0.418-17.144c5.563-1.081 9.485-1.239 14.705-0.697l1.951 42.93c-5.926 1.65-9.457 2.296-14.705 1.9 l-10.732-17.701c0.164 6.2 0.2 10.3 0.6 17.283C180.924 126.2 177.2 126.6 171.8 125.693z"/>
<path style="fill:#3C4B72;" d="M251.742 98.746c-6.884-0.735-10.709-0.952-17.469-0.139c-0.533 2.143-0.7 4.258-0.465 7.6 c1.629 0.3 3.2 0.4 4.6 0.512c0.075 1.4 0.1 2.597-0.046 3.902c-7.912-1.168-11.22-3.144-11.244-7.573 c-0.046-8.549 12.358-12.079 19.746-9.106l2.509-12.822c0 0-4.975-3.026-11.801-2.556c-16.723 1.153-22.533 10.686-23.88 23.6 c-2.232 21.3 13.3 26.1 23.7 20.953v3.949c4.678 0.5 7.5 0.3 12.452-1.208 C250.936 115.3 251.5 107.7 251.7 98.746z"/>
<path style="fill:#FED341;" d="M82.708 78.27c12.107 0.5 20.9 1.1 34.6 2.026l-1.069 16 c-1.936 0.565-5.308 0.481-8.604 0.268l-1.056 27.481l-15.913-0.825l0.95-27.766l-9.027-0.941 C82.182 87.9 82.3 84.1 82.7 78.27z"/>
<path style="fill:#FED341;" d="M118.405 79.411c12.114-0.358 20.961-0.455 34.656-0.537l0.114 16 c-1.889 0.707-5.258 0.872-8.561 0.902l0.978 27.484l-15.93 0.353l-1.105-27.76l-9.072-0.271 C118.596 89.1 118.4 85.3 118.4 79.411z"/>
<path style="fill:#FED341;" d="M49.687 90.383C46.899 75.9 33.8 75.2 13.1 79.745c2.11 17.4 3.1 27.4 4.1 44.9 l14.635-1.533l-0.744-8.318C46.699 111.1 52.1 102.9 49.7 90.383z M29.059 99.629c-0.418-2.091-0.591-5.201-0.558-8.362 c3.298-0.511 7.025-1.662 8.4 2.416C38.341 97.9 33.9 99.5 29.1 99.629z"/>
<path style="fill:#FED341;" d="M80.536 122.767c-6.086 0.79-17.19 0.186-28.991-0.372c-0.135-0.074-0.13-35.274 1.022-43.626 c9.664 0.4 22.742-0.07 28.2 0.325c0.581 4.228-0.116 8.665-0.883 10.918c-2.625 0.372-9.037 0.116-12.172 0 c0.023 0.743-0.14 3.322-0.093 5.203c1.44 0.7 7 0.2 9 0.604c0.593 2.5 0.3 4.855-0.139 7.7 c-1.22-0.243-7.317-0.104-8.642 0.372c0.046-0.047 0.3 3.7 0.2 5.297c2.973 1 9.9 0.8 12.5 0.6 C81.29 116.5 81.1 119.3 80.5 122.767z"/>
<path style="fill:#FED341;" d="M169.646 77.886c-6.286-0.123-9.919 0.358-14.635 1.185c-1.283 16.947-1.57 28.543-1.672 43.6 c5.981 1.5 9.5 1.8 14.8 0.628C168.482 122.8 170.2 83.6 169.6 77.886z"/>
<path style="fill:#FED341;" d="M173.201 123.742c-0.843-17.587-1.518-27.288-1.882-43.557c5.59-0.963 10.441-0.887 15.193-0.488 l10.941 16.587l-0.418-17.145c5.563-1.08 9.486-1.238 14.705-0.696l1.952 42.929c-5.926 1.651-9.457 2.297-14.705 1.9 l-10.732-17.701c0.164 6.2 0.2 10.3 0.6 17.283C182.318 124.3 178.6 124.7 173.2 123.742z"/>
<path style="fill:#FED341;" d="M253.136 96.795c-6.885-0.736-10.709-0.952-17.469-0.14c-0.534 2.144-0.7 4.259-0.465 7.6 c1.628 0.3 3.2 0.4 4.6 0.511c0.075 1.4 0.1 2.598-0.046 3.903c-7.912-1.168-11.22-3.145-11.244-7.573 c-0.046-8.549 12.359-12.08 19.746-9.106l2.509-12.823c0 0-4.975-3.025-11.801-2.555c-16.723 1.152-22.534 10.686-23.881 23.6 c-2.232 21.3 13.3 26.1 23.7 20.953v3.949c4.678 0.5 7.5 0.3 12.451-1.208 C252.33 113.4 252.9 105.8 253.1 96.795z"/>
<ellipse transform="matrix(-0.9124 0.4092 -0.4092 -0.9124 358.5692 219.4661)" style="fill:#3C4B72;" cx="155.8" cy="148.1" rx="16.4" ry="19.6"/>
<ellipse transform="matrix(-0.7915 -0.6111 0.6111 -0.7915 131.5518 344.9101)" style="fill:#3C4B72;" cx="124.6" cy="150" rx="12.7" ry="15.1"/>
<path style="fill:#3C4B72;" d="M70.825 130.618c15.275 0.5 25 0.5 41.5 1.208l-0.697 11.5 c0 0-19.513 19.143-19.467 19.143c25.925-0.059 45 13.3 67.6 11.847c15.957-1.038 21.186-3.81 25.832-6.598 c-2.934-0.901-4.108-2.296-3.716-5.156c0.42-3.069 3.081-5.129 5.761-4.879c4.468 0.4 6.3 3.3 5.5 7.3 c-1.858 8.735-9.398 18.332-33.173 19.792c-11.082 0.682-28.7-2.485-54.451-10.593c-10.374-3.266-22.121-1.45-35.821 0.3 c0.216-4.784 0.613-7.457 0.79-11.545l21.465-18.956c-8.351 0.885-15.518 1.766-21.093 1.4 C71.244 141.8 71.2 133.5 70.8 130.618z"/>
<ellipse transform="matrix(-0.9271 0.3748 -0.3748 -0.9271 349.9653 234.3496)" style="fill:#231F20;" cx="152.2" cy="151.2" rx="10.8" ry="12.9"/>
<ellipse transform="matrix(-0.8992 -0.4375 0.4375 -0.8992 216.1613 340.6394)" style="fill:#FFFFFF;" cx="147.3" cy="145.4" rx="4" ry="4.7"/>
<ellipse transform="matrix(-0.7915 -0.6111 0.6111 -0.7915 135.3336 351.3437)" style="fill:#231F20;" cx="127.6" cy="152.6" rx="7" ry="8.4"/>
<ellipse transform="matrix(-0.5509 -0.8346 0.8346 -0.5509 75.206 336.8028)" style="fill:#FFFFFF;" cx="128.2" cy="148.2" rx="2.6" ry="3.1"/>
<ellipse transform="matrix(-0.9124 0.4092 -0.4092 -0.9124 360.7412 221.7843)" style="fill:#20A0C3;" cx="156.6" cy="149.5" rx="16.4" ry="19.6"/>
<ellipse transform="matrix(-0.7915 -0.6111 0.6111 -0.7915 132.2005 347.9176)" style="fill:#20A0C3;" cx="125.4" cy="151.4" rx="12.7" ry="15.1"/>
<ellipse transform="matrix(-0.9124 0.4092 -0.4092 -0.9124 362.5668 222.5119)" style="fill:#FFFFFF;" cx="157.5" cy="150" rx="16.4" ry="19.6"/>
<ellipse transform="matrix(-0.7915 -0.6111 0.6111 -0.7915 133.3582 349.4277)" style="fill:#FFFFFF;" cx="126.3" cy="152" rx="12.7" ry="15.1"/>
<path style="fill:#FED341;" d="M72.498 132.569c15.275 0.5 25 0.5 41.5 1.208L113.29 145.3 c0 0-19.513 19.142-19.467 19.142c25.925-0.059 45 13.3 67.6 11.847c15.957-1.038 21.186-3.81 25.832-6.597 c-2.935-0.902-4.108-2.296-3.717-5.157c0.42-3.069 3.081-5.129 5.761-4.879c4.468 0.4 6.3 3.3 5.5 7.3 c-1.858 8.735-9.398 18.332-33.172 19.793c-11.082 0.681-28.7-2.486-54.452-10.594c-10.374-3.266-22.121-1.45-35.821 0.3 c0.217-4.785 0.613-7.458 0.79-11.546l21.464-18.956c-8.35 0.885-15.518 1.766-21.093 1.4 C72.916 143.8 72.9 135.5 72.5 132.569z"/>
<ellipse transform="matrix(-0.9271 0.3748 -0.3748 -0.9271 353.9195 237.4829)" style="fill:#231F20;" cx="153.9" cy="153.2" rx="10.8" ry="12.9"/>
<ellipse transform="matrix(-0.8992 -0.4375 0.4375 -0.8992 218.4895 345.075)" style="fill:#FFFFFF;" cx="149" cy="147.4" rx="4" ry="4.7"/>
<ellipse transform="matrix(-0.7915 -0.6111 0.6111 -0.7915 137.1382 355.8616)" style="fill:#231F20;" cx="129.3" cy="154.5" rx="7" ry="8.4"/>
<ellipse transform="matrix(-0.5509 -0.8346 0.8346 -0.5509 76.1714 341.2245)" style="fill:#FFFFFF;" cx="129.9" cy="150.1" rx="2.6" ry="3.1"/>
<path style="fill:#FFFFFF;" d="M253.542 78.074c-2.948-1.717-6.157-2.99-9.5-3.688c-3.338-0.7-6.808-0.81-10.181-0.246 c-3.374 0.556-6.63 1.792-9.565 3.564c-2.942 1.769-5.56 4.056-7.839 6.632l0 0l-0.048 0.069l-0.087-0.06l-0.916-0.628 c-0.1-0.068-0.125-0.205-0.057-0.305s0.205-0.125 0.305-0.057c0.013 0 0 0 0 0.031l0.756 0.812l-0.134 0.01l0 0 c2.25-2.622 4.853-4.967 7.803-6.8c2.942-1.838 6.231-3.145 9.66-3.762c3.427-0.626 6.973-0.567 10.4 0.1 c3.424 0.7 6.7 1.9 9.8 3.625l0.003 0.002c0.194 0.1 0.3 0.4 0.2 0.549c-0.109 0.194-0.355 0.264-0.549 0.2 C253.545 78.1 253.5 78.1 253.5 78.074z"/>
<path style="fill:#FFFFFF;" d="M215.41 79.187l-0.886-3.665l0.306 0.32h0c-3.522-0.703-7.091-1.245-10.681-1.223 c-1.793 0.012-3.585 0.177-5.351 0.512c-1.766 0.331-3.501 0.828-5.204 1.418c-0.032 0.012-0.066-0.005-0.078-0.037 c-0.011-0.03 0.005-0.065 0.036-0.077c1.694-0.626 3.427-1.16 5.199-1.53c1.771-0.373 3.579-0.577 5.389-0.625 c3.626-0.097 7.2 0.4 10.8 1.012l0 0.001l0.136 0.031l0.011 0.122L215.41 79.187z"/>
<path style="fill:#FFFFFF;" d="M193.203 81.702l-0.635 0.687l-0.158 0.171l-0.13-0.234l-3.551-6.397l0.045 0 c-2.383-0.116-4.766-0.22-7.149-0.316l-0.09-0.003l-0.047-0.097l-0.381-0.775c-0.057-0.114-0.009-0.253 0.105-0.31 c0.114-0.056 0.253-0.009 0.3 0.105c0.002 0 0 0 0 0.014l0.009 0.022l0.329 0.796l-0.215-0.156l0.895 0 l0.894 0.039l1.787 0.081l1.785 0.125l0.892 0.063l0.891 0.087l0.139 0.014l0.063 0.11l3.633 6.35l-0.289-0.064l0.864-0.358 C193.202 81.7 193.2 81.7 193.2 81.702C193.203 81.7 193.2 81.7 193.2 81.702z"/>
<path style="fill:#FFFFFF;" d="M183.213 69.895c0.593-2.042 0.763-4.172 0.744-6.276c-0.011-2.107-0.249-4.212-0.708-6.259 c-0.456-2.044-1.113-4.051-2.102-5.876c-0.493-0.911-1.069-1.773-1.743-2.544c-0.672-0.771-1.439-1.437-2.295-2.012 c-1.708-1.142-3.655-1.931-5.683-2.399c-2.028-0.475-4.138-0.638-6.236-0.537c-2.098 0.104-4.192 0.472-6.195 1.1 c-1 0.335-1.978 0.745-2.902 1.257c-0.923 0.513-1.799 1.125-2.544 1.883c0.708-0.792 1.56-1.454 2.47-2.012 c0.915-0.551 1.889-1.002 2.889-1.377c2.003-0.743 4.114-1.202 6.25-1.374c2.135-0.166 4.299-0.065 6.4 0.4 c2.104 0.4 4.2 1.2 6 2.446c0.451 0.3 0.9 0.6 1.3 0.99c0.41 0.4 0.8 0.8 1.1 1.2 c0.698 0.8 1.3 1.7 1.8 2.706c0.983 1.9 1.6 4 2 6.076c0.403 2.1 0.6 4.2 0.5 6.4 C184.195 65.7 183.9 67.9 183.2 69.895z"/>
<path style="fill:#FFFFFF;" d="M151.295 48.615c-1.104-0.736-2.168-1.448-3.307-2.02c-1.129-0.582-2.342-1.004-3.606-1.208 c-1.262-0.198-2.554-0.258-3.849-0.188c-0.324 0.018-0.647 0.042-0.971 0.074c-0.324 0.026-0.648 0.057-0.972 0.1 c-0.648 0.072-1.293 0.173-1.942 0.269c1.262-0.338 2.544-0.646 3.855-0.78c1.308-0.145 2.642-0.177 4 0 c1.312 0.2 2.6 0.6 3.8 1.22C149.419 46.7 150.5 47.6 151.3 48.615z"/>
<path style="fill:#FFFFFF;" d="M136.079 44.806c-0.135-2.584-0.59-5.171-1.657-7.467v-0.001l0.403 0.3 c-3.878 0.256-7.76 0.489-11.645 0.617c-1.942 0.071-3.885 0.132-5.828 0.182c-1.943 0.04-3.886 0.066-5.83 0.1 c-3.886 0.035-7.772 0.055-11.658-0.023l-2.914-0.054l-2.913-0.099c-1.942-0.055-3.883-0.178-5.824-0.28c0 0 0 0 0-0.001h0 c7.767 0.1 15.5 0.1 23.301-0.063c7.766-0.141 15.528-0.432 23.279-0.912l0.101-0.006l0.037 0.094v0.001 c0.463 1.2 0.8 2.5 0.9 3.787C136.047 42.2 136.1 43.5 136.1 44.806z"/>
<path style="fill:#FFFFFF;" d="M94.239 75.023c-0.937 0.009-1.872 0.008-2.807 0.003l-2.806-0.005 c-1.87-0.021-3.74-0.032-5.609-0.034l-5.607-0.052c-1.869-0.014-3.738 0-5.607-0.028l-5.608-0.028l-2.804 0.003l-2.805-0.02 l-5.611-0.022c-1.871-0.026-3.742-0.026-5.614-0.067l5.607-0.286c1.869-0.082 3.739-0.136 5.61-0.195l2.806-0.079l2.807-0.042 l5.614-0.05c1.872-0.019 3.7 0 5.6 0.041c1.872 0 3.7 0.1 5.6 0.123c1.87 0.1 3.7 0.1 5.6 0.2 c1.869 0.1 3.7 0.2 5.6 0.369c0.036 0 0.1 0 0.1 0.069C94.302 75 94.3 75 94.2 75.023z"/>
<path style="fill:#FFFFFF;" d="M48.392 78.478l-0.67 0.813l-0.105 0.128l-0.207-0.141h0c-0.583-0.563-1.209-1.081-1.877-1.537 c-0.66-0.467-1.363-0.872-2.087-1.232c-1.453-0.718-3-1.245-4.586-1.612c-3.174-0.755-6.477-0.933-9.755-0.867 c-3.284 0.074-6.563 0.408-9.822 0.868c-3.258 0.469-6.506 1.03-9.736 1.688c3.211-0.74 6.437-1.435 9.697-1.949 c3.258-0.519 6.542-0.912 9.848-1.046c3.302-0.124 6.643-0.007 9.9 0.708c1.624 0.4 3.2 0.9 4.7 1.7 c0.744 0.4 1.5 0.8 2.1 1.321c0.673 0.5 1.3 1.1 1.9 1.674l0 0l-0.312-0.014l0.909-0.533 c0.022-0.014 0.05-0.006 0.1 0.016C48.406 78.4 48.4 78.5 48.4 78.478z"/>
<path style="fill:#FFFFFF;" d="M167.625 128.829c1.938 1.6 3.7 3.4 5.1 5.478c0.743 1 1.4 2.1 2 3.2 c0.57 1.1 1.1 2.3 1.5 3.497c0.417 1.2 0.7 2.4 1 3.663c0.25 1.2 0.4 2.5 0.5 3.7 c0.178 2.5 0.1 5.017-0.211 7.49c0 0 0 0.001-0.001 0.001s0 0 0-0.001c-0.036-2.488-0.163-4.968-0.486-7.414 c-0.163-1.223-0.403-2.432-0.682-3.627c-0.276-1.196-0.624-2.374-1.046-3.523c-0.421-1.15-0.92-2.271-1.487-3.355 c-0.547-1.096-1.176-2.149-1.829-3.189C170.682 132.7 169.2 130.8 167.6 128.829z"/>
<path style="fill:#FFFFFF;" d="M168.459 168.871l0.949 0.949l-0.053-0.012c0.914-0.194 1.826-0.392 2.734-0.604 c0.909-0.211 1.81-0.452 2.709-0.695c1.8-0.486 3.578-1.056 5.35-1.646c0.073-0.024 0.2 0 0.2 0.1 c0.021 0.065-0.008 0.136-0.068 0.167l-0.02 0.01c-0.84 0.437-1.701 0.819-2.581 1.15c-0.438 0.17-0.882 0.326-1.33 0.5 c-0.446 0.152-0.899 0.278-1.353 0.405c-0.907 0.255-1.832 0.448-2.763 0.593c-0.934 0.135-1.874 0.224-2.83 0.198l-0.031-0.001 l-0.022-0.011l-1.206-0.589c-0.146-0.071-0.208-0.248-0.136-0.395s0.248-0.207 0.395-0.136 C168.41 168.8 168.4 168.8 168.5 168.871z"/>
<path style="fill:#FFFFFF;" d="M80.304 150.921c-0.806 0.983-1.649 1.929-2.529 2.834c-0.432 0.461-0.885 0.899-1.328 1.3 l-1.361 1.315l-1.391 1.282c-0.475 0.415-0.939 0.843-1.425 1.246c-0.955 0.826-1.948 1.611-2.978 2.357l1.33-1.347l1.35-1.327 c0.902-0.882 1.821-1.746 2.731-2.619c0.925-0.856 1.841-1.724 2.775-2.572l1.403-1.27L80.304 150.921z"/>
<path style="fill:#FFFFFF;" d="M198.173 163.79c0.202-1.051 0.117-2.124-0.171-3.126c-0.285-1.006-0.775-1.94-1.392-2.77 c-1.243-1.656-3.046-2.863-5.041-3.343c-1-0.24-2.024-0.312-3.067-0.236c-1.036 0.062-2.063 0.244-3.039 0.6 c-0.974 0.344-1.892 0.852-2.698 1.517c-0.814 0.658-1.502 1.474-2.107 2.354c0.458-0.965 1.081-1.866 1.862-2.627 c0.39-0.38 0.82-0.721 1.278-1.023c0.462-0.296 0.952-0.549 1.459-0.761c1.021-0.41 2.107-0.644 3.197-0.729 c1.081-0.086 2.213-0.042 3.3 0.239c2.153 0.5 4.1 1.9 5.3 3.716c0.618 0.9 1.1 1.9 1.3 3 C198.534 161.7 198.5 162.8 198.2 163.79z"/>
</svg>
