<svg width="16" height="16" xmlns="http://www.w3.org/2000/svg"><path d="M7.742 1.333c2.77 0 1.758 4 1.758 4s4-1.1 4 1.638v7.696H2.833V1.333h4.909zM8.292 0H1.5v16h13.333V6.41c0-1.595-4.432-6.41-6.54-6.41zM11.5 8.667H9.748v2.457h.605v-.981h.993v-.488h-.993v-.466H11.5v-.522zm-3.267 0H7.167v2.457h1.066c.358 0 .641-.12.842-.357.37-.438.391-1.356-.042-1.794-.198-.2-.474-.306-.8-.306zm-.461.522h.33c.316 0 .535.115.61.429.043.178.052.453-.013.632a.493.493 0 0 1-.503.352h-.425V9.189h.001zm-1.827-.522H4.833v2.457h.605v-.851h.507c.413 0 .71-.185.816-.509a.94.94 0 0 0 0-.59c-.106-.323-.404-.507-.816-.507zm-.507.488h.364c.157 0 .311.018.384.152a.413.413 0 0 1 0 .326c-.073.132-.227.151-.384.151h-.364v-.63z" fill="currentColor" fill-rule="nonzero"/></svg>