<svg xmlns="http://www.w3.org/2000/svg" viewBox="0 0 16 16"><path d="M8 1.442c2.136 0 2.39.008 3.233.047 2.168.098 3.181 1.127 3.28 3.279.038.843.046 1.097.046 3.233s-.008 2.389-.046 3.232c-.1 2.15-1.11 3.181-3.28 3.28-.844.038-1.096.046-3.233.046-2.136 0-2.39-.008-3.233-.046-2.173-.1-3.18-1.133-3.279-3.28-.039-.844-.047-1.096-.047-3.233 0-2.136.009-2.389.047-3.233.1-2.151 1.11-3.18 3.28-3.279C5.61 1.45 5.863 1.442 8 1.442zM8 0C5.827 0 5.555.01 4.702.048 1.797.181.182 1.793.049 4.701.009 5.555 0 5.827 0 8s.01 2.445.048 3.299c.133 2.905 1.745 4.52 4.653 4.653C5.555 15.991 5.827 16 8 16s2.445-.01 3.299-.048c2.902-.133 4.521-1.745 4.652-4.653.04-.854.049-1.126.049-3.299s-.01-2.445-.048-3.298c-.13-2.903-1.745-4.52-4.653-4.653C10.445.009 10.173 0 8 0zm0 3.892a4.108 4.108 0 1 0 0 8.216 4.108 4.108 0 0 0 0-8.216zm0 6.775a2.666 2.666 0 1 1 0-5.333 2.666 2.666 0 0 1 0 5.333zm4.27-7.897a.96.96 0 1 0 0 1.92.96.96 0 0 0 0-1.92z" fill="currentColor" fill-rule="nonzero"/></svg>